<?xml version="1.0" standalone="no"?>
<!DOCTYPE svg PUBLIC "-//W3C//DTD SVG 20010904//EN"
 "http://www.w3.org/TR/2001/REC-SVG-20010904/DTD/svg10.dtd">
<svg version="1.0" xmlns="http://www.w3.org/2000/svg"
 width="968.000000pt" height="968.000000pt" viewBox="0 0 968.000000 968.000000"
 preserveAspectRatio="xMidYMid meet">
<metadata>
Created by potrace 1.11, written by Peter Selinger 2001-2013
</metadata>
<g transform="translate(0.000000,968.000000) scale(0.100000,-0.100000)"
fill="#000000" stroke="none">
<path d="M4420 8540 l-342 -342 296 -295 296 -296 -2 -274 -1 -273 -26 -1
c-14 0 -33 -2 -41 -4 -8 -2 -26 -6 -40 -8 -192 -42 -400 -189 -519 -367 l-43
-65 -1846 0 -1847 0 -3 -92 -3 -92 1908 2 1907 2 46 84 c103 185 268 313 460
355 58 13 214 14 265 2 116 -26 247 -105 323 -193 72 -84 84 -101 120 -174
l37 -77 1915 2 1915 1 1 80 c0 44 -1 85 -3 90 -2 7 -625 10 -1851 9 -1962 0
-1882 -2 -1882 43 0 7 -4 13 -8 13 -4 0 -16 14 -26 32 -69 115 -239 256 -376
311 -61 24 -78 29 -147 42 -16 3 -33 7 -39 9 -8 3 -11 85 -12 273 l0 268 295
297 296 296 -341 341 -341 342 -341 -341z m552 -131 l211 -211 -211 -211 -211
-211 -211 212 -211 211 208 209 c114 116 209 211 211 211 1 1 97 -94 214 -210z"/>
<path d="M769 6075 c-1 -21 -1 -145 0 -157 1 -3 53 -6 117 -7 64 0 118 -1 119
-3 2 -2 -23 -82 -56 -178 -34 -96 -62 -182 -64 -190 -2 -8 -13 -42 -26 -75
-13 -33 -24 -64 -25 -70 -1 -5 -26 -77 -54 -160 -29 -82 -53 -154 -55 -160 -1
-5 -5 -17 -8 -25 -7 -16 -76 -218 -81 -235 -2 -5 -6 -19 -10 -30 -7 -18 -14
-37 -30 -88 -3 -9 -6 -21 -7 -25 -1 -4 -10 -29 -21 -57 -11 -27 -21 -57 -23
-65 -2 -8 -22 -67 -44 -130 -89 -258 -253 -736 -256 -750 -2 -8 -13 -40 -25
-70 -12 -30 -22 -57 -22 -60 0 -3 -2 -9 -4 -15 -75 -212 -194 -575 -194 -592
0 -87 214 -355 382 -479 118 -86 325 -184 439 -208 13 -3 35 -7 49 -10 106
-23 150 -27 270 -27 100 1 143 4 200 16 14 2 39 7 55 10 55 9 75 14 85 20 5 3
20 8 32 10 33 7 163 59 166 67 2 5 12 8 22 8 10 0 20 3 22 8 2 4 23 18 48 31
84 47 172 114 253 196 89 88 94 95 147 170 91 128 118 205 85 239 -19 18 -19
26 0 26 11 0 9 13 -11 68 -15 37 -34 92 -44 122 -29 87 -100 294 -107 310 -3
8 -7 20 -9 25 -1 6 -25 75 -54 155 -28 80 -55 159 -60 175 -4 17 -15 50 -25
75 -9 25 -50 140 -90 255 -40 116 -82 236 -93 267 -11 31 -17 59 -14 62 3 3
-1 6 -8 6 -7 0 -10 3 -7 7 4 3 2 12 -4 20 -6 7 -8 13 -5 13 4 0 1 10 -6 23 -6
12 -13 27 -14 34 -2 13 -87 256 -107 308 -6 17 -12 35 -13 40 -3 11 -33 100
-45 130 -4 11 -15 40 -23 65 -8 25 -44 131 -81 235 -37 105 -68 195 -69 200
-1 6 -4 15 -8 20 -3 6 -13 33 -21 60 -8 28 -29 88 -46 134 -17 47 -29 87 -27
88 3 3 2669 7 2731 4 14 -1 37 -26 72 -78 90 -137 203 -237 341 -306 29 -15
64 -29 78 -31 13 -3 29 -8 36 -12 39 -25 266 -37 353 -20 17 3 43 8 58 11 76
15 202 71 287 128 64 43 199 183 240 250 30 48 40 57 65 57 162 4 2847 1 2851
-3 3 -3 -24 -92 -61 -199 -36 -106 -79 -231 -95 -278 -16 -47 -72 -211 -125
-365 -53 -154 -98 -287 -100 -295 -2 -8 -4 -15 -5 -15 -1 0 -3 -7 -5 -15 -4
-16 -32 -95 -42 -120 -3 -8 -7 -19 -9 -25 -5 -18 -104 -310 -111 -325 -3 -8
-7 -19 -8 -25 -2 -5 -22 -64 -45 -130 -23 -66 -43 -127 -45 -135 -2 -8 -20
-60 -40 -115 -20 -55 -38 -107 -40 -115 -6 -24 -173 -509 -178 -517 -3 -4 -10
-28 -17 -52 -6 -24 -16 -55 -22 -70 -6 -14 -12 -28 -13 -31 0 -3 -9 -29 -19
-58 -34 -99 -29 -117 60 -252 144 -217 363 -391 609 -483 72 -27 183 -55 245
-63 19 -2 46 -7 60 -10 30 -7 252 -6 295 1 17 3 41 8 55 10 14 3 39 8 55 11
44 9 60 12 60 14 0 1 8 3 18 6 9 2 23 5 30 7 54 13 200 78 272 121 116 69 345
272 345 306 0 5 4 10 8 10 8 0 74 96 111 163 28 50 31 76 15 109 -8 15 -10 29
-5 32 10 6 -17 102 -60 211 -12 31 -100 279 -102 290 -2 6 -16 48 -32 95 -16
47 -30 87 -30 90 -1 3 -4 12 -8 20 -15 40 -59 167 -64 185 -3 11 -11 34 -19
52 -8 17 -14 37 -14 45 0 8 -3 18 -7 22 -4 3 -8 12 -9 19 -1 7 -25 77 -54 157
-28 80 -53 152 -55 161 -1 8 -10 32 -19 52 -8 21 -15 39 -16 42 0 3 -3 10 -5
17 -3 7 -41 118 -84 245 -44 128 -86 243 -92 255 -7 13 -12 25 -11 28 1 3 -6
28 -15 55 -9 28 -18 55 -19 60 -2 6 -22 62 -44 125 -23 63 -43 120 -44 125 -2
6 -6 17 -9 25 -18 47 -138 400 -138 407 0 1 -11 30 -24 63 l-24 60 67 1 c37 0
92 1 122 2 l54 2 1 88 c1 54 -3 87 -9 88 -35 4 -3479 3 -3485 -1 -3 -3 -21
-34 -38 -70 -60 -123 -186 -251 -308 -312 -236 -120 -522 -82 -705 94 -74 71
-126 143 -168 233 l-28 60 -1682 0 c-1675 0 -1682 0 -1683 -20z m421 -524 c16
-47 44 -131 64 -186 66 -191 184 -530 210 -610 15 -44 31 -89 36 -100 4 -11
15 -40 23 -65 9 -25 34 -99 58 -165 23 -66 42 -124 44 -130 1 -5 6 -21 12 -35
5 -14 34 -95 62 -180 29 -85 56 -164 61 -175 11 -26 81 -226 85 -245 2 -8 20
-60 40 -115 20 -55 38 -104 39 -110 2 -5 5 -17 8 -25 20 -53 101 -286 103
-295 1 -5 7 -23 14 -39 6 -16 10 -34 8 -40 -2 -7 -287 -10 -920 -11 -504 0
-917 1 -917 1 0 2 117 348 188 554 119 347 170 496 187 545 10 28 19 55 20 60
1 6 5 17 8 25 10 24 99 284 101 295 1 6 4 15 7 20 4 6 12 28 19 50 7 22 37
112 67 200 30 88 56 165 57 170 1 6 4 15 8 20 3 6 13 37 23 70 9 33 20 65 24
70 5 6 14 33 21 60 7 28 15 54 18 60 7 12 105 294 139 399 l25 80 14 -34 c8
-18 28 -72 44 -119z m7357 47 c18 -51 64 -185 103 -298 40 -113 75 -216 80
-230 4 -14 31 -89 58 -167 28 -79 48 -143 45 -143 -3 0 -1 -6 4 -12 6 -7 25
-56 42 -108 18 -52 46 -133 63 -180 29 -85 34 -99 37 -112 1 -4 13 -38 27 -75
15 -38 27 -72 29 -78 1 -5 5 -17 8 -25 3 -8 24 -69 46 -135 23 -66 45 -129 50
-140 5 -11 12 -29 14 -40 3 -11 33 -99 67 -195 34 -96 63 -179 64 -185 2 -5 6
-17 9 -25 3 -8 26 -76 52 -150 26 -74 57 -165 71 -202 l24 -68 -23 -1 c-57 -3
-1813 -4 -1819 -2 -3 2 6 36 21 75 15 40 28 75 28 78 1 3 4 12 7 20 36 111 48
147 53 160 3 8 7 20 9 25 1 6 23 71 49 145 25 74 55 162 66 195 11 33 22 67
26 75 3 8 7 20 9 25 1 6 50 150 109 320 59 171 113 328 120 350 30 91 136 401
142 415 3 8 7 17 7 20 7 30 71 208 78 218 6 6 8 12 5 12 -5 0 34 121 60 190 3
8 7 20 9 25 20 71 108 315 113 315 4 0 21 -42 38 -92z m-6549 -2757 c31 -2
-142 -188 -222 -239 -22 -14 -46 -31 -53 -38 -17 -16 -187 -98 -243 -117 -169
-56 -472 -70 -587 -26 -13 5 -23 7 -23 4 0 -2 -19 3 -42 11 -24 9 -50 17 -59
19 -60 12 -248 120 -323 184 -83 71 -189 188 -181 200 2 5 1664 6 1733 2z
m7370 0 c24 -2 11 -21 -80 -114 -79 -79 -211 -187 -231 -187 -4 0 -28 -13 -54
-28 -69 -40 -242 -96 -338 -110 -58 -8 -252 -7 -310 1 -27 5 -61 10 -75 12
-74 10 -270 91 -358 148 -50 32 -162 127 -199 167 -72 79 -91 105 -83 110 6 4
1668 5 1728 1z"/>
<path d="M4051 5128 c7 -13 32 -53 56 -91 24 -37 43 -71 43 -76 0 -5 3 -11 8
-13 4 -1 50 -70 102 -153 l94 -150 2 -1250 c1 -687 2 -1254 3 -1258 0 -5 5 -6
10 -2 5 3 13 0 17 -6 4 -7 3 -9 -4 -5 -6 3 -17 -1 -25 -9 -9 -8 -19 -15 -22
-15 -27 0 -175 -139 -230 -215 -75 -106 -145 -274 -145 -352 0 -18 -6 -23 -27
-24 -16 0 -255 -1 -533 -2 l-505 -2 -1 -91 -1 -90 619 -1 c340 0 618 3 619 6
0 3 2 45 4 92 12 288 172 499 450 595 34 11 88 18 166 19 102 2 124 0 195 -24
162 -54 302 -170 361 -296 10 -22 21 -42 24 -45 7 -6 35 -92 45 -140 4 -19 8
-71 10 -115 1 -44 3 -83 3 -86 1 -3 285 -5 631 -6 l630 0 0 92 0 92 -522 1
c-288 0 -532 1 -543 1 -17 1 -23 12 -33 66 -16 84 -55 183 -106 265 -50 82
-162 195 -244 248 -34 22 -57 42 -50 44 14 5 14 31 19 1768 l2 744 37 55 c20
31 45 72 56 91 10 19 21 37 24 40 6 5 121 189 196 312 3 4 -322 8 -721 8
l-726 0 12 -22z m1093 -183 c-4 -11 -11 -25 -16 -32 -34 -42 -138 -222 -138
-238 -1 -11 -3 -564 -5 -1230 -2 -665 -4 -1219 -4 -1231 -1 -20 -3 -20 -67 -7
-110 23 -185 22 -323 -2 -13 -2 -26 -7 -29 -9 -13 -14 -31 17 -22 39 5 13 6
25 3 28 -4 5 -5 80 -2 150 0 6 -1 27 -4 45 -2 18 0 35 4 38 5 3 5 12 0 22 -5
9 -5 26 -1 38 5 12 6 24 4 27 -3 3 -5 58 -4 123 0 66 1 127 1 137 0 9 0 64 0
122 0 58 0 112 0 120 0 8 0 62 0 120 0 58 0 112 0 120 0 8 0 62 0 120 0 58 0
112 0 120 0 8 0 62 0 120 0 58 0 113 0 123 0 45 0 198 0 207 1 6 -1 25 -4 43
-2 18 0 35 4 38 5 3 5 12 0 22 -5 9 -5 26 -1 38 5 12 6 24 3 27 -4 5 -5 80 -2
150 0 6 -1 27 -4 45 -2 18 0 35 4 38 5 3 5 12 0 22 -5 9 -5 26 -1 38 5 12 6
24 4 27 -8 7 -7 167 0 174 3 4 0 13 -7 22 -8 9 -42 63 -77 121 -36 58 -68 107
-72 108 -4 2 -8 11 -8 21 0 15 30 16 385 17 383 0 385 0 379 -21z"/>
<path d="M2259 1008 c-1 -2 -2 -42 -3 -90 -2 -80 0 -87 19 -90 17 -3 4838 -2
4918 1 l27 1 0 90 0 90 -2480 0 c-1364 0 -2480 -1 -2481 -2z"/>
</g>
</svg>
