<?xml version="1.0" encoding="utf-8"?>
<!-- Generator: Adobe Illustrator 24.0.2, SVG Export Plug-In . SVG Version: 6.00 Build 0)  -->
<svg version="1.1" id="Layer_1" xmlns="http://www.w3.org/2000/svg" xmlns:xlink="http://www.w3.org/1999/xlink" x="0px" y="0px"
	 viewBox="0 0 541.5 205.5" style="enable-background:new 0 0 541.5 205.5;" xml:space="preserve">
<style type="text/css">
	.st0{fill:#1C1A18;}
	.st1{fill:#CABD9B;}
	.st2{clip-path:url(#SVGID_2_);}
	.st3{clip-path:url(#SVGID_4_);}
	.st4{clip-path:url(#SVGID_6_);}
	.st5{clip-path:url(#SVGID_8_);}
	.st6{clip-path:url(#SVGID_10_);}
	.st7{clip-path:url(#SVGID_12_);}
	.st8{clip-path:url(#SVGID_14_);}
	.st9{clip-path:url(#SVGID_16_);}
	.st10{clip-path:url(#SVGID_18_);}
	.st11{clip-path:url(#SVGID_20_);}
	.st12{clip-path:url(#SVGID_22_);}
	.st13{clip-path:url(#SVGID_24_);}
	.st14{clip-path:url(#SVGID_26_);}
	.st15{clip-path:url(#SVGID_28_);}
	.st16{clip-path:url(#SVGID_30_);}
	.st17{clip-path:url(#SVGID_32_);}
	.st18{clip-path:url(#SVGID_34_);}
	.st19{clip-path:url(#SVGID_36_);}
	.st20{clip-path:url(#SVGID_38_);}
	.st21{clip-path:url(#SVGID_40_);}
	.st22{clip-path:url(#SVGID_42_);}
	.st23{clip-path:url(#SVGID_44_);}
	.st24{clip-path:url(#SVGID_46_);}
	.st25{clip-path:url(#SVGID_48_);}
	.st26{clip-path:url(#SVGID_50_);}
	.st27{clip-path:url(#SVGID_52_);}
	.st28{clip-path:url(#SVGID_54_);}
	.st29{clip-path:url(#SVGID_56_);}
	.st30{clip-path:url(#SVGID_58_);}
	.st31{clip-path:url(#SVGID_60_);}
	.st32{clip-path:url(#SVGID_62_);}
	.st33{clip-path:url(#SVGID_64_);}
	.st34{clip-path:url(#SVGID_66_);}
	.st35{clip-path:url(#SVGID_68_);}
	.st36{clip-path:url(#SVGID_70_);}
	.st37{clip-path:url(#SVGID_72_);}
	.st38{clip-path:url(#SVGID_74_);}
	.st39{clip-path:url(#SVGID_76_);}
	.st40{clip-path:url(#SVGID_78_);}
	.st41{clip-path:url(#SVGID_80_);}
	.st42{clip-path:url(#SVGID_82_);}
	.st43{clip-path:url(#SVGID_84_);}
	.st44{clip-path:url(#SVGID_86_);}
	.st45{clip-path:url(#SVGID_88_);}
	.st46{clip-path:url(#SVGID_90_);}
	.st47{clip-path:url(#SVGID_92_);}
	.st48{clip-path:url(#SVGID_94_);}
	.st49{clip-path:url(#SVGID_96_);}
	.st50{clip-path:url(#SVGID_98_);}
	.st51{clip-path:url(#SVGID_100_);}
	.st52{clip-path:url(#SVGID_102_);}
	.st53{clip-path:url(#SVGID_104_);}
	.st54{clip-path:url(#SVGID_106_);}
	.st55{clip-path:url(#SVGID_108_);}
	.st56{clip-path:url(#SVGID_110_);}
	.st57{clip-path:url(#SVGID_112_);}
	.st58{clip-path:url(#SVGID_114_);}
	.st59{clip-path:url(#SVGID_116_);}
	.st60{clip-path:url(#SVGID_118_);}
	.st61{clip-path:url(#SVGID_120_);}
	.st62{clip-path:url(#SVGID_122_);}
	.st63{clip-path:url(#SVGID_124_);}
	.st64{clip-path:url(#SVGID_126_);}
	.st65{clip-path:url(#SVGID_128_);}
	.st66{clip-path:url(#SVGID_130_);}
	.st67{clip-path:url(#SVGID_132_);}
	.st68{clip-path:url(#SVGID_134_);}
	.st69{clip-path:url(#SVGID_136_);}
	.st70{clip-path:url(#SVGID_138_);}
	.st71{clip-path:url(#SVGID_140_);}
	.st72{clip-path:url(#SVGID_142_);}
	.st73{clip-path:url(#SVGID_144_);}
	.st74{clip-path:url(#SVGID_146_);}
	.st75{clip-path:url(#SVGID_148_);}
	.st76{clip-path:url(#SVGID_150_);}
	.st77{clip-path:url(#SVGID_152_);}
	.st78{clip-path:url(#SVGID_154_);}
	.st79{clip-path:url(#SVGID_156_);}
	.st80{clip-path:url(#SVGID_158_);}
	.st81{clip-path:url(#SVGID_160_);}
	.st82{clip-path:url(#SVGID_162_);}
	.st83{clip-path:url(#SVGID_164_);}
	.st84{clip-path:url(#SVGID_166_);}
	.st85{clip-path:url(#SVGID_168_);}
	.st86{clip-path:url(#SVGID_170_);}
	.st87{clip-path:url(#SVGID_172_);}
	.st88{clip-path:url(#SVGID_174_);}
	.st89{clip-path:url(#SVGID_176_);}
	.st90{clip-path:url(#SVGID_178_);}
	.st91{clip-path:url(#SVGID_180_);}
	.st92{clip-path:url(#SVGID_182_);}
	.st93{clip-path:url(#SVGID_184_);}
	.st94{clip-path:url(#SVGID_186_);}
	.st95{clip-path:url(#SVGID_188_);}
	.st96{clip-path:url(#SVGID_190_);}
	.st97{clip-path:url(#SVGID_192_);}
	.st98{clip-path:url(#SVGID_194_);}
	.st99{clip-path:url(#SVGID_196_);}
	.st100{clip-path:url(#SVGID_198_);}
	.st101{clip-path:url(#SVGID_200_);}
	.st102{clip-path:url(#SVGID_202_);}
	.st103{clip-path:url(#SVGID_204_);}
	.st104{clip-path:url(#SVGID_206_);}
	.st105{clip-path:url(#SVGID_208_);}
	.st106{clip-path:url(#SVGID_210_);}
	.st107{clip-path:url(#SVGID_212_);}
	.st108{clip-path:url(#SVGID_214_);}
	.st109{clip-path:url(#SVGID_216_);}
	.st110{clip-path:url(#SVGID_218_);}
	.st111{clip-path:url(#SVGID_220_);}
	.st112{clip-path:url(#SVGID_222_);}
	.st113{clip-path:url(#SVGID_224_);}
	.st114{clip-path:url(#SVGID_226_);}
	.st115{clip-path:url(#SVGID_228_);}
	.st116{clip-path:url(#SVGID_230_);}
	.st117{clip-path:url(#SVGID_232_);}
	.st118{clip-path:url(#SVGID_234_);}
	.st119{clip-path:url(#SVGID_236_);}
	.st120{clip-path:url(#SVGID_238_);}
	.st121{clip-path:url(#SVGID_240_);}
	.st122{clip-path:url(#SVGID_242_);}
	.st123{clip-path:url(#SVGID_244_);}
	.st124{clip-path:url(#SVGID_246_);}
	.st125{clip-path:url(#SVGID_248_);}
	.st126{clip-path:url(#SVGID_250_);}
	.st127{clip-path:url(#SVGID_252_);}
	.st128{clip-path:url(#SVGID_254_);}
	.st129{clip-path:url(#SVGID_256_);}
	.st130{clip-path:url(#SVGID_258_);}
	.st131{clip-path:url(#SVGID_260_);}
	.st132{clip-path:url(#SVGID_262_);}
	.st133{clip-path:url(#SVGID_264_);}
	.st134{clip-path:url(#SVGID_266_);}
	.st135{clip-path:url(#SVGID_268_);}
	.st136{clip-path:url(#SVGID_270_);}
	.st137{clip-path:url(#SVGID_272_);}
	.st138{clip-path:url(#SVGID_274_);}
	.st139{clip-path:url(#SVGID_276_);}
	.st140{clip-path:url(#SVGID_278_);}
	.st141{clip-path:url(#SVGID_280_);}
	.st142{clip-path:url(#SVGID_282_);}
	.st143{clip-path:url(#SVGID_284_);}
	.st144{clip-path:url(#SVGID_286_);}
	.st145{clip-path:url(#SVGID_288_);}
	.st146{clip-path:url(#SVGID_290_);}
	.st147{clip-path:url(#SVGID_292_);}
	.st148{clip-path:url(#SVGID_294_);}
	.st149{clip-path:url(#SVGID_296_);}
	.st150{clip-path:url(#SVGID_298_);}
	.st151{clip-path:url(#SVGID_300_);}
	.st152{clip-path:url(#SVGID_302_);}
	.st153{clip-path:url(#SVGID_304_);}
	.st154{clip-path:url(#SVGID_306_);}
	.st155{clip-path:url(#SVGID_308_);}
	.st156{clip-path:url(#SVGID_310_);}
	.st157{clip-path:url(#SVGID_312_);}
	.st158{clip-path:url(#SVGID_314_);}
	.st159{clip-path:url(#SVGID_316_);}
	.st160{clip-path:url(#SVGID_318_);}
	.st161{clip-path:url(#SVGID_320_);}
	.st162{clip-path:url(#SVGID_322_);}
	.st163{clip-path:url(#SVGID_324_);}
	.st164{clip-path:url(#SVGID_326_);}
	.st165{clip-path:url(#SVGID_328_);}
	.st166{clip-path:url(#SVGID_330_);}
	.st167{clip-path:url(#SVGID_332_);}
	.st168{clip-path:url(#SVGID_334_);}
	.st169{clip-path:url(#SVGID_336_);}
	.st170{clip-path:url(#SVGID_338_);}
	.st171{clip-path:url(#SVGID_340_);}
	.st172{clip-path:url(#SVGID_342_);}
	.st173{clip-path:url(#SVGID_344_);}
	.st174{clip-path:url(#SVGID_346_);}
	.st175{clip-path:url(#SVGID_348_);}
	.st176{clip-path:url(#SVGID_350_);}
	.st177{clip-path:url(#SVGID_352_);}
	.st178{fill:#606060;}
</style>
<path class="st1" d="M247.4,137.9c-1,4.4-4.4,10.5-6,16.2c-1,2.5-4.1-6.7-4.1-4.4c0,1.6,3.5,14.9,5.1,15.8
	c5.7-22.8,11.1-16.8,19.3-29.5c4.4-6.7,7.3-15.5,9.2-23.1c-5.1,7.3-6.7,15.5-13,20.9c0.3-16.2,16.8-23.1,17.4-38.4
	c-2.5,2.9-3.8,7-6,9.8c-3.8,5.1-8.2,8.9-11.7,13.9C253.8,125.3,249,131,247.4,137.9z"/>
<path class="st1" d="M240.8,138.2c0.3,0,0.3,0,0.3-0.3c1-1.6,1-6.7,3.5-11.4c2.2-4.4,6.7-8.9,9.5-12.4c2.5-2.9,11.1-15.8,12.7-19
	c-2.2,1.3-18.1,16.2-20.6,19C240.8,120.5,237.9,130,240.8,138.2z"/>
<path class="st1" d="M263,92c-4.1,0.3-10.5,2.5-14.3,4.1c-4.4,2.2-4.4,5.1-6,15.8c2.5-3.5,4.4-8.9,7.9-11.7
	C253.8,97,259.2,95.8,263,92z"/>
<path class="st1" d="M205.3,104.3l4.4-1.3l-1-7l-4.4,2.2C203.7,104.3,203.4,101.2,205.3,104.3z"/>
<path class="st1" d="M266.5,141.1c-3.5,13.3-7,25.7-8.2,28.2c-1,2.2-5.4,7-6.3,12.4c-1,6.3-3.2,12.4-3.2,12.4
	c-0.6-13.6,2.9-26.3,8.9-38.4C261.1,149.7,264.9,140.1,266.5,141.1z"/>
<path class="st1" d="M271.8,132.2c5.7-4.4,9.5-7.9,13-15.5c0-5.7-0.6-15.5-0.6-20.9l-2.2,4.1C280.1,115.1,278.2,118.6,271.8,132.2z"
	/>
<path class="st1" d="M230.6,174.1c0-1.6,1.3-9.5,1-10.8c-0.3-1.3-21.6-61.2-21.6-61.2c-1-1.3,8.2-1.9,8.6-2.5c0,0-8.9,1-9.2-0.6
	l-2.9-9.5l-4.8,5.1l1.9,6l-7.9,3.5c0,0,8.6-1.3,9.2-0.6c1,0.6,18.7,63.7,18.7,63.7L230.6,174.1z"/>
<path class="st1" d="M227.8,169.6v-6.3l-15.8-46.6c0,0-0.6,3.2-0.6,3.8c-0.3,0.6,13.6,44.4,13.6,44.4L227.8,169.6z"/>
<path class="st1" d="M251.9,201.3c0,0,3.5-7.9,3.2-8.6c-0.3-0.6,1.9-10.5,2.9-11.4c0.6-1,3.2-2.9,3.2-2.9s-3.5,9.8-3.5,14.6
	C257.3,197.5,251.9,201.3,251.9,201.3z"/>
<path class="st1" d="M306.4,38.4l-2.5,1.3c0,2.2,1.9,0.3,5.1,0.3c1.3,0,3.2,2.5,5.4,2.5c3.5,0,2.9-1,6.3-1.6c2.9-1.3,4.4,0.3,0-1.6
	c-3.8-1.9-1,1-5.1-2.2l-0.6-6.7l0.3,1l-2.5,4.1c-1.6-4.8-0.3-4.8-0.3-9.8l-3.5-1.6C309.2,29.2,310.5,35.3,306.4,38.4z"/>
<path class="st1" d="M308.9,24.2l2.5,1.3l1,0.3c0.3-1.9,2.9-5.7,1-7c-1-0.3-4.1-1-4.8-1.6L308.9,24.2z"/>
<path class="st1" d="M78.6,15.1l0.6,0.6l3.5,1c-1-3.5,2.2,0-2.5-3.8l-2.9-0.6L78.6,15.1z"/>
<path class="st1" d="M244.6,69.8c0,0,4.8,12.4,13.6,15.5l12-0.3l-4.8-5.4c-4.8-4.4-4.8-2.2-9.5-8.9l-3.5-3.5c1.9,6,7.9,8.6,7.9,15.2
	c0,1.3-6-0.6-7.3-5.1c-0.6-1-2.2-4.4-2.9-6c-0.3-1-1.3-4.1-3.2-5.7c-1-1-1.9,0.6-2.5-0.3c-1-1,0-4.1,0-5.4c-0.3-1-0.6,0-1.3,0
	c-1.6,7.9-9.5,17.7-8.9,26.6c0-0.3,0.3-1,0.6-1.6C236.3,81.2,240.8,71.4,244.6,69.8z"/>
<path class="st1" d="M254.7,67.6c0,0,5.7,7,10.5,7.9c5.4,1.3-1.6-2.9-2.5-3.5C262.3,71.4,254.7,64.7,254.7,67.6z"/>
<path class="st1" d="M271.8,73.9c0,0-0.3-11.1-1-11.1s-12,0.6-12,0.6S262,71.7,271.8,73.9z"/>
<path class="st1" d="M256,59.4c-1-0.3,6-3.8,13-8.6c4.8-3.5,8.6-7.9,9.5-10.8s1.6-2.5,2.9-1.3c0,0.3-4.1,7.3-3.8,7.9
	c0,0.3,2.5-2.5,4.4-4.1c0.6-0.6,0-2.9,0.3-2.5c0.3,1,1.9,3.8,1.9,3.8c0.3,0,6.3-1.6,7.3-1.6c0.3,0,1.3,0,1.9,0c0,0-1.9,0.6-3.5,1.3
	s-3.8,1.9-3.8,1.9c1.9,0,2.2-1,2.5-0.3c0,0.3-0.3,3.8-2.5,5.7c-3.8,2.9-6.3,6.3-6.3,6.3s0-2.9-0.3-5.4c0-1.9-0.3-3.8-0.3-3.8
	c0-0.3-7,4.8-11.4,8.2c-1,0.6,4.8,1,3.8,1.3C266.1,59.7,257.3,59.4,256,59.4z"/>
<path class="st1" d="M271.2,54.9l3.2,1.6l1.3,8.6c0,0,2.9-0.6,2.9-1.3c0.3-2.2,0-10.8-1.3-12C276,51.1,272.5,54.9,271.2,54.9z"/>
<path class="st1" d="M263.6,44.5c0,0-0.3-7,2.9-9.8c2.9-2.5,1.9-1.3,1.9-1.3l0.3,9.5c0,0,1.9,0,2.9-0.3c0.6-0.6,1.6,1.9,1.6,1.9
	s1-3.8,0.3-4.1c-2.2-1.9-0.6-6.3,0.6-1c0,0,0,0,0,0.3c0.3,0.6-0.3,4.1,0,3.8c0.3-0.3,1.6-1.3,2.2-3.5c1-2.2,1.3-5.7,1.3-6
	c0-1-3.5,0-3.8-0.6c-0.6-2.5,0-7.9,0-7.9l-3.2-1.3c0,0,0.3,3.2-1.9,5.7c-2.2,2.2-5.1,4.8-5.7,4.8s-4.8-2.5-6.7-7
	c-2.2-4.4-0.3-10.1-0.3-10.1s5.4-5.7,7-5.7c1.6,0.3,5.1,3.5,6.7,5.7c1.6,1.9,1.6,2.5,1.9,3.2c0.3,0,0.6,0.3,1.6,1
	c0,0.3,0.3,0.3,0.6,0.3l-0.3-10.5c0,0-7.3,0.3-10.5-9.5c-0.3,0-2.5,4.4-5.4,7.6c-1.6,1.3-5.7,1.9-5.7,2.5l-0.3,13
	c0,0-2.5,4.4-3.8,5.7c-1.3,1.3,1.3,4.1-1,7c-1.9,2.5-7.9,7.3-7.9,7.3l-1,14.6c0,0,2.9-6,6.7-11.1c1.9-2.2,4.1-3.5,5.7-5.1
	c1.3-1.3,6.3-0.3,6.7-1.3c1.6-4.1,1.3-7,1.3-7L263.6,44.5z"/>
<path class="st1" d="M283.6,64.4l7.6-24.7l0,0l0,0v0.6l-7,24.1H283.6L283.6,64.4z"/>
<path class="st1" d="M292.1,64.4h-0.3l-0.6-24.1v-0.6c0,0.3,0,0.3,0,0.3c0.3,0,0.3,0,0.3,0v0.3L292.1,64.4z"/>
<path class="st1" d="M301,64.4h-0.6l-8.9-24.1V40c0,0,0.3,0,0.3,0.3L301,64.4z"/>
<path class="st1" d="M301.3,65.4H301c0-0.3,0-0.3,0-0.3c-0.3-0.3-0.6-0.6-1.3-0.6c-2.2,0-10.5,0-10.5,0s8.2,0.6,9.8,0.6
	c0.3,0,0.6,0,1,0.3h-16.5c0,0,0,0,0-0.3l0,0c-0.3,0-0.3,0-0.3-0.3c0-0.3,0-0.3,0.3-0.3l0,0h0.6h7.6h0.3h8.2h0.6h0.3
	c0,0,0.3,0,0.3,0.3c0,0.3,0,0.3-0.3,0.3l0,0l0,0C301.3,65.4,301.3,65.4,301.3,65.4z M299.7,64.4 M301.3,65.1"/>
<path class="st1" d="M345.4,64.4L345.4,64.4h-0.6l-7-24.1v-0.6l0,0l0,0L345.4,64.4z"/>
<path class="st1" d="M337.1,64.4h-0.3l0.6-24.1V40h0.3c0,0,0,0,0-0.3v0.6L337.1,64.4z"/>
<path class="st1" d="M328.6,64.4h-0.3l8.9-24.1c0-0.3,0.3-0.3,0.3-0.3v0.3L328.6,64.4z"/>
<path class="st1" d="M330.5,41.9L330.5,41.9c-1.3,0-2.2-0.3-3.8-0.6c-3.5-1-7.3-1.9-10.1-2.2c-0.3-0.6-0.3-1.3-0.3-1.9
	c2.9,0,6.3,1.9,11.1,2.9c1.6,0.3,2.9,0.6,4.1,0.6l0,0c1.6,0,2.9-0.3,3.8-0.6c0,0.3,0,0.6,0.3,0.6h0.3
	C334.3,41.3,332.7,41.9,330.5,41.9z"/>
<g>
	<defs>
		<path id="SVGID_177_" d="M328.9,42.6L328.9,42.6c4.1,0,7.6-1.9,8.9-2.5c0,0,0,0,0-0.3l0,0c0,0.3,0,0.3,0,0.3h-0.3
			c0,0-0.3,0-0.3,0.3C335.6,41.3,332.7,42.6,328.9,42.6z M330.5,41.9c-1.3,0-2.2-0.3-3.8-0.6c-3.5-1-7.3-1.9-10.1-2.2l0,0
			c2.9,0.3,6.7,1.3,10.1,2.2C328.3,41.6,329.2,41.9,330.5,41.9L330.5,41.9L330.5,41.9z"/>
	</defs>
	<use xlink:href="#SVGID_177_"  style="overflow:visible;fill:#CABD9B;"/>
	<clipPath id="SVGID_2_">
		<use xlink:href="#SVGID_177_"  style="overflow:visible;"/>
	</clipPath>
	<g class="st2">
	</g>
</g>
<g>
	<defs>
		<path id="SVGID_179_" d="M316.5,41L316.5,41c0.3,0,0.6,0,1,0l0,0C317.2,41,316.9,41,316.5,41L316.5,41z"/>
	</defs>
	<use xlink:href="#SVGID_179_"  style="overflow:visible;fill:#CABD9B;"/>
	<clipPath id="SVGID_4_">
		<use xlink:href="#SVGID_179_"  style="overflow:visible;"/>
	</clipPath>
	<g class="st3">
	</g>
</g>
<g>
	<defs>
		<path id="SVGID_181_" d="M331.4,40.7L331.4,40.7c1.6,0,2.9-0.3,3.8-0.6l0,0C334.3,40.3,333,40.7,331.4,40.7z M331.7,40
			c-1.9,0-4.4-0.3-7.3-1.6c-4.1-1.6-6.7-2.2-8.2-2.2l0,0c1.6,0,4.1,0.6,8.2,2.2C327.3,39.7,329.8,40,331.7,40L331.7,40L331.7,40z"/>
	</defs>
	<use xlink:href="#SVGID_181_"  style="overflow:visible;fill:#CABD9B;"/>
	<clipPath id="SVGID_6_">
		<use xlink:href="#SVGID_181_"  style="overflow:visible;"/>
	</clipPath>
	<g class="st4">
	</g>
</g>
<path class="st1" d="M335.6,40.7c-0.3,0-0.3-0.3-0.3-0.6l0,0v-0.3C335.2,39.7,334.9,40.3,335.6,40.7L335.6,40.7c0-0.3,0-0.3,0-0.3
	s1-2.9,2.2-2.9l0,0c0,0,0.3,0.3,0.6,0.6c0.3,0,0.3,0,0.3,0.3l0,0c0-0.3-0.3-0.6-0.3-1c0.6,1,0.3,1.6-0.6,2.2l0,0l0,0l0,0
	c-0.6,0.6-1.3,1-1.3,1c-0.3,0-0.6,0-0.6,0H335.6z M335.2,39.7L335.2,39.7L335.2,39.7c0.3-0.6,1-2.9,2.2-2.9
	C336.2,36.8,335.2,39.7,335.2,39.7L335.2,39.7z M338.4,37.5L338.4,37.5L338.4,37.5z M337.5,36.8L337.5,36.8L337.5,36.8L337.5,36.8
	L337.5,36.8z"/>
<g>
	<defs>
		<path id="SVGID_183_" d="M335.6,40.7c-0.6-0.3-0.3-1-0.3-1l0,0l0,0c0,0,1-2.9,2.2-2.9l0,0l0,0c-1.3,0-2.2,2.9-2.2,2.9
			S334.9,40.3,335.6,40.7L335.6,40.7z M338.7,38.4c0-0.3,0-0.3-0.3-0.3c-0.3-0.3-0.6-0.6-0.6-0.6l0,0c0,0,0.3,0.3,0.6,0.6
			C338.7,38.1,338.7,38.1,338.7,38.4L338.7,38.4L338.7,38.4L338.7,38.4z"/>
	</defs>
	<use xlink:href="#SVGID_183_"  style="overflow:visible;fill:#CABD9B;"/>
	<clipPath id="SVGID_8_">
		<use xlink:href="#SVGID_183_"  style="overflow:visible;"/>
	</clipPath>
	<g class="st5">
	</g>
</g>
<g>
	<defs>
		<path id="SVGID_185_" d="M338.4,37.5L338.4,37.5L338.4,37.5z M338.4,37.5L338.4,37.5L338.4,37.5z M338.4,37.5
			c-0.3-0.3-0.6-0.6-1-0.6C337.8,36.8,338.1,37.2,338.4,37.5L338.4,37.5z"/>
	</defs>
	<use xlink:href="#SVGID_185_"  style="overflow:visible;fill:#CABD9B;"/>
	<clipPath id="SVGID_10_">
		<use xlink:href="#SVGID_185_"  style="overflow:visible;"/>
	</clipPath>
	<g class="st6">
	</g>
</g>
<g>
	<defs>
		<path id="SVGID_187_" d="M312.4,41c-0.3,0-0.6,0-0.6,0l0,0l0,0c-0.3,0-0.3,0-0.3,0l0,0c0,0,0,0,0.3,0C311.8,41,312.1,41,312.4,41
			L312.4,41L312.4,41z"/>
	</defs>
	<use xlink:href="#SVGID_187_"  style="overflow:visible;fill:#CABD9B;"/>
	<clipPath id="SVGID_12_">
		<use xlink:href="#SVGID_187_"  style="overflow:visible;"/>
	</clipPath>
	<g class="st7">
	</g>
</g>
<g>
	<defs>
		<path id="SVGID_189_" d="M311.5,39.1c0.3-0.6,0.3-1.3,0.3-1.9c0.3,0,0.6,0,1,0c0,0.6,0,1.3,0,1.9
			C312.4,39.1,312.1,39.1,311.5,39.1L311.5,39.1z"/>
	</defs>
	<use xlink:href="#SVGID_189_"  style="overflow:visible;fill:#CABD9B;"/>
	<clipPath id="SVGID_14_">
		<use xlink:href="#SVGID_189_"  style="overflow:visible;"/>
	</clipPath>
	<g class="st8">
	</g>
</g>
<g>
	<defs>
		<path id="SVGID_191_" d="M311.8,37.2L311.8,37.2c0.3,0,0.6,0,1,0l0,0C312.4,37.2,312.1,37.2,311.8,37.2L311.8,37.2z"/>
	</defs>
	<use xlink:href="#SVGID_191_"  style="overflow:visible;fill:#CABD9B;"/>
	<clipPath id="SVGID_16_">
		<use xlink:href="#SVGID_191_"  style="overflow:visible;"/>
	</clipPath>
	<g class="st9">
	</g>
</g>
<g>
	<path class="st1" d="M313,39.7c0,0,0,0.3,0.3-0.6c0-0.6,0-1.3,0-1.9c0-0.3,0-0.6,0-1l0,0c0.3-1,0.3-1.6,0.3-1.9h1.6
		c0,0.3,0.3,1,0.3,1.9c0,0.3,0,0.6,0,1c0,0.6,0.3,1.3,0.3,1.9s0,0.3,0,1C318.4,40.3,314,36.8,313,39.7z M313.4,37.2 M313.7,34.3
		L313.7,34.3L313.7,34.3L313.7,34.3L313.7,34.3L313.7,34.3L313.7,34.3L313.7,34.3L313.7,34.3L313.7,34.3L313.7,34.3L313.7,34.3
		L313.7,34.3L313.7,34.3L313.7,34.3L313.7,34.3L313.7,34.3z M313.7,34.3 M315.6,36.2 M315.9,39.1 M316.2,34L316.2,34L316.2,34z
		 M316.2,34L316.2,34h-3.5l0,0c0.3,0,0.3-0.3,0.3-0.3l0,0h2.9l0,0l0,0l0,0l0,0l0,0c0,0,0,0,0-0.3l0,0l0,0l0,0l0,0l0,0l0,0l0,0l0,0
		l0,0l0,0l0,0l0,0l0,0l0,0l0,0l0,0l0,0l0,0l0,0l0,0h0.3l0,0l0,0l0,0l0,0l0,0c0,0,0,0-0.3,0H313l0,0v0.3l0,0l0,0l0,0l0,0l0,0l0,0
		L316.2,34z M312.7,34L312.7,34L312.7,34L312.7,34L312.7,34L312.7,34L312.7,34L312.7,34z M313,33.7L313,33.7L313,33.7L313,33.7
		L313,33.7L313,33.7L313,33.7c0-0.3-0.3-0.3,0-0.3c0-0.3,1-0.6,1-0.6l0,0h1l0,0c0,0,1,0.3,1,0.6c0.3,0,0.3,0,0.3,0l0,0l0,0l0,0l0,0
		h-0.3l0,0l0,0l0,0l0,0l0,0l0,0l0,0l0,0l0,0l0,0l0,0l0,0l0,0l0,0l0,0l0,0l0,0l0,0l0,0l0,0c0,0.3,0,0.3,0,0.3l0,0l0,0l0,0l0,0l0,0
		l0.3,0.3L313,33.7z M314,32.7v-0.6l0,0l0,0l0,0l0,0l0,0c0,0-1.3-0.3-1.3-1.3c0-1.3,1-3.2,1.9-3.5l0,0l0,0l0,0l0,0
		c0.6,0.3,1.6,2.2,1.6,3.5c0,1-1.3,1.3-1.3,1.3l0,0l0,0l0,0l0,0l0,0l0,0l0,0l0,0l0,0l0,0l0,0h-1l0,0l0,0l0,0l0,0l0,0V32.7z
		 M313,33.4"/>
</g>
<g>
	<defs>
		<polygon id="SVGID_193_" points="315.6,32.7 313.7,32.7 313.7,32.1 313.7,32.1 313.7,32.1 315.6,32.1 315.6,32.1 315.6,32.1 
			315.6,32.1 313.7,32.1 313.7,32.1 313.7,32.7 315.6,32.7 315.6,32.7 		"/>
	</defs>
	<use xlink:href="#SVGID_193_"  style="overflow:visible;fill:#CABD9B;"/>
	<clipPath id="SVGID_18_">
		<use xlink:href="#SVGID_193_"  style="overflow:visible;"/>
	</clipPath>
	<g class="st10">
	</g>
</g>
<g>
	<defs>
		<polygon id="SVGID_195_" points="315.6,32.7 313.7,32.7 313.7,32.1 313.7,32.1 315.6,32.1 315.6,32.1 315.6,32.1 315.6,32.1 
			315.6,32.1 315.6,32.7 		"/>
	</defs>
	<use xlink:href="#SVGID_195_"  style="overflow:visible;fill:#CABD9B;"/>
	<clipPath id="SVGID_20_">
		<use xlink:href="#SVGID_195_"  style="overflow:visible;"/>
	</clipPath>
	<g class="st11">
	</g>
</g>
<g>
	<defs>
		<polygon id="SVGID_197_" points="316.5,33.7 312.4,33.7 312.4,33.4 312.4,33.7 316.5,33.7 316.9,33.4 316.5,33.7 		"/>
	</defs>
	<use xlink:href="#SVGID_197_"  style="overflow:visible;fill:#CABD9B;"/>
	<clipPath id="SVGID_22_">
		<use xlink:href="#SVGID_197_"  style="overflow:visible;"/>
	</clipPath>
	<g class="st12">
	</g>
</g>
<g>
	<defs>
		<path id="SVGID_199_" d="M316.5,33.7h-4.1v-0.3l0,0h4.1c0,0,0,0,0.3,0L316.5,33.7L316.5,33.7z"/>
	</defs>
	<use xlink:href="#SVGID_199_"  style="overflow:visible;fill:#CABD9B;"/>
	<clipPath id="SVGID_24_">
		<use xlink:href="#SVGID_199_"  style="overflow:visible;"/>
	</clipPath>
	<g class="st13">
	</g>
</g>
<g>
	<defs>
		<polygon id="SVGID_201_" points="312.4,34 312.4,34 312.4,34 312.4,34 		"/>
	</defs>
	<use xlink:href="#SVGID_201_"  style="overflow:visible;fill:#CABD9B;"/>
	<clipPath id="SVGID_26_">
		<use xlink:href="#SVGID_201_"  style="overflow:visible;"/>
	</clipPath>
	<g class="st14">
	</g>
</g>
<g>
	<defs>
		<path id="SVGID_203_" d="M315.9,34.3L315.9,34.3h0.3c0,0,0.6,0,0.6-0.3l0,0h-4.4h4.4l0,0l0,0c0,0.3-0.6,0.3-0.6,0.3H315.9
			L315.9,34.3L315.9,34.3L315.9,34.3z"/>
	</defs>
	<use xlink:href="#SVGID_203_"  style="overflow:visible;fill:#CABD9B;"/>
	<clipPath id="SVGID_28_">
		<use xlink:href="#SVGID_203_"  style="overflow:visible;"/>
	</clipPath>
	<g class="st15">
	</g>
</g>
<g>
	<defs>
		<polygon id="SVGID_205_" points="315.9,34.3 315.9,34.3 315.9,34.3 315.9,34.3 		"/>
	</defs>
	<use xlink:href="#SVGID_205_"  style="overflow:visible;fill:#CABD9B;"/>
	<clipPath id="SVGID_30_">
		<use xlink:href="#SVGID_205_"  style="overflow:visible;"/>
	</clipPath>
	<g class="st16">
	</g>
</g>
<g>
	<defs>
		<path id="SVGID_207_" d="M315.9,34.3H313l0,0l0,0h-0.3c0,0-0.3,0-0.3-0.3l0,0l0,0l0,0h4.4l0,0c0,0.3-0.6,0.3-0.6,0.3H315.9
			L315.9,34.3L315.9,34.3L315.9,34.3z"/>
	</defs>
	<use xlink:href="#SVGID_207_"  style="overflow:visible;fill:#CABD9B;"/>
	<clipPath id="SVGID_32_">
		<use xlink:href="#SVGID_207_"  style="overflow:visible;"/>
	</clipPath>
	<g class="st17">
	</g>
</g>
<path class="st1" d="M314.6,40.3c-4.8,0-7.3,0.6-9.5,1.3c-1.6,0.3-2.9,0.6-4.4,0.6c-6.3,0.6-10.5-2.5-10.5-2.5h-0.3l0.3-0.3
	c0-0.3,0-1,0.3-1.6c0.3-0.3,0.6-0.3,1-0.3c0.3,0,0.6,0,1,0.3c0.3,0.3,0.6,0.6,0.6,1c0.3,0.3,0.3,0.6,0.6,1c0,0.3,0,0.3,0.3,0.3
	l0.3,0.3c1.6,0,3.8,0.3,6,0c2.2-0.6,4.4-1.3,6.3-1.9c0.6-0.3,1.3-0.6,1.9-1c4.4-1.3,7.3-1.3,12,0c0.3,0.3,1,0.6,1.9,1
	c1.6,0.6,3.8,1.3,6.3,1.9c1.9,0.3,4.1,0,6,0l0.3-0.3c0,0,0.3,0,0.3-0.3c0-0.3,0.3-0.6,0.3-1c0.3-0.3,0.3-0.6,0.6-1
	c0.3-0.3,0.6-0.3,1-0.3c0.6,0,1,0,1,0.3c0.3,0.6,0.6,1.3,0.6,1.6v0.3l0,0c0,0-4.4,3.2-10.5,2.5c-1.6,0-3.2-0.3-4.4-0.6
	C321.6,41,319.1,40.3,314.6,40.3z"/>
<path class="st1" d="M313.7,32.1h1.9v0.6c0,0,1,0.3,1,0.6c0.3,0,0,0.3,0,0.3s0,0,0.3,0.3c0,0.3-0.3,0.3-1,0.3c-0.3,0.3-2.9,0-2.9,0
	s-0.6,0-0.6-0.3c0-0.3,0.3-0.3,0.3-0.3s-0.3,0-0.3-0.3l0,0c0,0,0-0.3,1.3-0.6V32.1z"/>
<g>
	<defs>
		<path id="SVGID_209_" d="M336.5,69.2c-3.5,0-5.4-1-6.7-1.6C331.1,68.2,333,69.2,336.5,69.2c4.4,0,6.3-1.6,7-2.5l0,0
			C342.8,67.6,340.9,69.2,336.5,69.2L336.5,69.2z"/>
	</defs>
	<use xlink:href="#SVGID_209_"  style="overflow:visible;fill:#CABD9B;"/>
	<clipPath id="SVGID_34_">
		<use xlink:href="#SVGID_209_"  style="overflow:visible;"/>
	</clipPath>
	<g class="st18">
	</g>
</g>
<g>
	<defs>
		<path id="SVGID_211_" d="M336.5,69.2c-3.5,0-5.4-1-6.7-1.6c-0.3-0.3-0.3-0.6-0.6-1c0,0,0,0,0.3,0h13.9
			C342.8,67.6,340.9,69.2,336.5,69.2z M330.5,67c0,0.3,0.3,1.3,2.5,1.6c1,0.3,1.9,0.3,2.5,0.3c1,0,1.6,0,1.6,0l0,0
			c0,0-1.3-1-2.5-1.3C333.6,67.3,330.5,67,330.5,67L330.5,67L330.5,67L330.5,67L330.5,67z"/>
	</defs>
	<use xlink:href="#SVGID_211_"  style="overflow:visible;fill:#CABD9B;"/>
	<clipPath id="SVGID_36_">
		<use xlink:href="#SVGID_211_"  style="overflow:visible;"/>
	</clipPath>
	<g class="st19">
	</g>
</g>
<g>
	<defs>
		<path id="SVGID_213_" d="M343.8,66.6h-0.3h-13.9c-0.3,0-0.3,0-0.3,0c-1,0-1.6-0.6-1.6-1.6l0,0c0,1,1,1.6,1.9,1.6H343.8
			c0.6,0,1.3-0.3,1.6-0.6C345.1,66.3,344.4,66.6,343.8,66.6L343.8,66.6z"/>
	</defs>
	<use xlink:href="#SVGID_213_"  style="overflow:visible;fill:#CABD9B;"/>
	<clipPath id="SVGID_38_">
		<use xlink:href="#SVGID_213_"  style="overflow:visible;"/>
	</clipPath>
	<g class="st20">
	</g>
</g>
<g>
	<defs>
		<path id="SVGID_215_" d="M343.8,66.6h-14.3c-1,0-1.9-0.6-1.9-1.6l0,0c0,0.3,0,0.6,0,0.6l0,0h0.6c0,0.3,0,0.3,0,0.3l0,0
			c0,0,0,0,0.3-0.3h16.8l0,0c0,0,0-0.3,0-0.6l0,0c0,0.3,0,0.6,0,1C345.1,66.3,344.4,66.6,343.8,66.6L343.8,66.6z"/>
	</defs>
	<use xlink:href="#SVGID_215_"  style="overflow:visible;fill:#CABD9B;"/>
	<clipPath id="SVGID_40_">
		<use xlink:href="#SVGID_215_"  style="overflow:visible;"/>
	</clipPath>
	<g class="st21">
	</g>
</g>
<g>
	<defs>
		<path id="SVGID_217_" d="M327.6,65.7L327.6,65.7L327.6,65.7c0,0,0-0.3,0-0.6l0,0C327.6,65.4,327.6,65.7,327.6,65.7L327.6,65.7
			L327.6,65.7z"/>
	</defs>
	<use xlink:href="#SVGID_217_"  style="overflow:visible;fill:#CABD9B;"/>
	<clipPath id="SVGID_42_">
		<use xlink:href="#SVGID_217_"  style="overflow:visible;"/>
	</clipPath>
	<g class="st22">
	</g>
</g>
<g>
	<defs>
		<path id="SVGID_219_" d="M345.4,65.7h-16.8c0,0,0-0.3,0.3-0.3h16.5c0,0,0,0,0-0.3C345.4,65.4,345.4,65.7,345.4,65.7L345.4,65.7z
			 M328.3,65.7h-0.6l0,0c0,0,0-0.3,0-0.6c0,0.3,0,0.3,0,0.3h0.3C327.9,65.4,327.9,65.7,328.3,65.7L328.3,65.7z"/>
	</defs>
	<use xlink:href="#SVGID_219_"  style="overflow:visible;fill:#CABD9B;"/>
	<clipPath id="SVGID_44_">
		<use xlink:href="#SVGID_219_"  style="overflow:visible;"/>
	</clipPath>
	<g class="st23">
	</g>
</g>
<path class="st1" d="M345.4,65.4h-16.5c0.3-0.3,0.6-0.3,1-0.3c1.9,0,9.8-0.6,9.8-0.6s-8.2,0-10.5,0c-1,0-1.3,0.6-1.3,1h-0.3
	c0,0,0,0,0-0.3l0,0c-0.3,0-0.3,0-0.3-0.3c0-0.3,0.3-0.3,0.3-0.3h0.6h0.3h8.2h0.3h7.6h0.6l0,0c0.3,0,0.3,0,0.3,0.3
	c0,0.3,0,0.3-0.3,0.3l0,0C345.4,65.4,345.4,65.4,345.4,65.4z M329.2,64.4 M327.6,65.1 M327.6,65.1"/>
<g>
	<defs>
		<path id="SVGID_221_" d="M335.6,68.9c-0.6,0-1.6,0-2.5-0.3c-2.2-0.3-2.5-1.3-2.5-1.6c0,0.3,0.3,1.3,2.5,1.6
			C334,68.9,334.9,68.9,335.6,68.9c1,0,1.6,0,1.6,0l0,0C337.1,68.9,336.5,68.9,335.6,68.9z M330.5,67L330.5,67L330.5,67L330.5,67
			L330.5,67z"/>
	</defs>
	<use xlink:href="#SVGID_221_"  style="overflow:visible;fill:#CABD9B;"/>
	<clipPath id="SVGID_46_">
		<use xlink:href="#SVGID_221_"  style="overflow:visible;"/>
	</clipPath>
	<g class="st24">
	</g>
</g>
<g>
	<defs>
		<path id="SVGID_223_" d="M335.6,68.9c-0.6,0-1.6,0-2.5-0.3c-2.2-0.3-2.5-1.3-2.5-1.6l0,0l0,0c0,0,3.2,0.3,4.1,0.6
			c1.3,0.3,2.5,1.3,2.5,1.3S336.5,68.9,335.6,68.9L335.6,68.9z"/>
	</defs>
	<use xlink:href="#SVGID_223_"  style="overflow:visible;fill:#CABD9B;"/>
	<clipPath id="SVGID_48_">
		<use xlink:href="#SVGID_223_"  style="overflow:visible;"/>
	</clipPath>
	<g class="st25">
	</g>
</g>
<g>
	<defs>
		<path id="SVGID_225_" d="M328.3,66L328.3,66c0,0,0,0,0.3-0.3l0,0C328.3,66,328.3,66,328.3,66L328.3,66z"/>
	</defs>
	<use xlink:href="#SVGID_225_"  style="overflow:visible;fill:#CABD9B;"/>
	<clipPath id="SVGID_50_">
		<use xlink:href="#SVGID_225_"  style="overflow:visible;"/>
	</clipPath>
	<g class="st26">
	</g>
</g>
<g>
	<defs>
		<path id="SVGID_227_" d="M328.6,65.7L328.6,65.7c0,0,0-0.3,0.3-0.3l0,0C328.6,65.4,328.6,65.7,328.6,65.7L328.6,65.7z"/>
	</defs>
	<use xlink:href="#SVGID_227_"  style="overflow:visible;fill:#CABD9B;"/>
	<clipPath id="SVGID_52_">
		<use xlink:href="#SVGID_227_"  style="overflow:visible;"/>
	</clipPath>
	<g class="st27">
	</g>
</g>
<g>
	<defs>
		<path id="SVGID_229_" d="M328.9,65.4L328.9,65.4c0.3-0.3,0.6-0.3,1-0.3c1.6,0,9.5-0.3,9.8-0.6h-10.5l0,0c2.2,0,10.5,0,10.5,0
			s-7.9,0.6-9.8,0.6C329.5,65.1,329.2,65.1,328.9,65.4L328.9,65.4z"/>
	</defs>
	<use xlink:href="#SVGID_229_"  style="overflow:visible;fill:#CABD9B;"/>
	<clipPath id="SVGID_54_">
		<use xlink:href="#SVGID_229_"  style="overflow:visible;"/>
	</clipPath>
	<g class="st28">
	</g>
</g>
<g>
	<defs>
		<path id="SVGID_231_" d="M328.3,66c0,0,0,0,0-0.3h0.3C328.3,66,328.3,66,328.3,66L328.3,66z"/>
	</defs>
	<use xlink:href="#SVGID_231_"  style="overflow:visible;fill:#CABD9B;"/>
	<clipPath id="SVGID_56_">
		<use xlink:href="#SVGID_231_"  style="overflow:visible;"/>
	</clipPath>
	<g class="st29">
	</g>
</g>
<g>
	<defs>
		<path id="SVGID_233_" d="M328.6,65.7h-0.3c-0.3,0-0.3-0.3-0.3-0.3h1C328.6,65.4,328.6,65.7,328.6,65.7L328.6,65.7z"/>
	</defs>
	<use xlink:href="#SVGID_233_"  style="overflow:visible;fill:#CABD9B;"/>
	<clipPath id="SVGID_58_">
		<use xlink:href="#SVGID_233_"  style="overflow:visible;"/>
	</clipPath>
	<g class="st30">
	</g>
</g>
<g>
	<defs>
		<path id="SVGID_235_" d="M328.9,65.4h-1c0-0.3,0.3-1,1.3-1h10.5c-0.3,0.3-8.2,0.6-9.8,0.6C329.5,65.1,329.2,65.1,328.9,65.4
			L328.9,65.4z"/>
	</defs>
	<use xlink:href="#SVGID_235_"  style="overflow:visible;fill:#CABD9B;"/>
	<clipPath id="SVGID_60_">
		<use xlink:href="#SVGID_235_"  style="overflow:visible;"/>
	</clipPath>
	<g class="st31">
	</g>
</g>
<path class="st1" d="M345.7,65.1h-0.3c0,0.3-0.3,1.9-1.6,1.6c0,0-0.6,0.6-1.3,1c-0.3,0.3-0.6,0.6-1,0.6c-1.3,0.6-3.5,1-5.4,1
	c-1.3,0-3.2-0.3-4.4-0.6c-0.6-0.3-1.3-0.6-1.6-1c-0.6-0.3-0.6-0.6-1-1c0,0,0,0-0.3,0h-0.3c-0.3,0-0.3-0.3-0.3-0.3
	c-0.6-0.6-1-1.3-1-1.6c0,0,0.3-0.3,0.6-0.3c2.2,0,9.8,0,14.6,0.3C344.4,64.7,345.7,65.1,345.7,65.1z"/>
<g>
	<defs>
		<path id="SVGID_237_" d="M292.4,69.2c-3.5,0-5.7-1-6.7-1.6C286.7,68.2,289,69.2,292.4,69.2c4.4,0,6.3-1.6,7-2.5l0,0
			C298.8,67.6,296.9,69.2,292.4,69.2L292.4,69.2z"/>
	</defs>
	<use xlink:href="#SVGID_237_"  style="overflow:visible;fill:#CABD9B;"/>
	<clipPath id="SVGID_62_">
		<use xlink:href="#SVGID_237_"  style="overflow:visible;"/>
	</clipPath>
	<g class="st32">
	</g>
</g>
<g>
	<defs>
		<path id="SVGID_239_" d="M292.4,69.2c-3.5,0-5.7-1-6.7-1.6c-0.3-0.3-0.6-0.6-0.6-1l0,0h14.3C298.8,67.6,296.9,69.2,292.4,69.2z
			 M286.1,67c0.3,0.3,0.6,1.3,2.5,1.6c1,0.3,1.9,0.3,2.5,0.3c1.3,0,1.9,0,1.9,0l0,0c0,0-1.6-1-2.5-1.3C289.6,67.3,286.4,67,286.1,67
			L286.1,67L286.1,67L286.1,67L286.1,67z"/>
	</defs>
	<use xlink:href="#SVGID_239_"  style="overflow:visible;fill:#CABD9B;"/>
	<clipPath id="SVGID_64_">
		<use xlink:href="#SVGID_239_"  style="overflow:visible;"/>
	</clipPath>
	<g class="st33">
	</g>
</g>
<g>
	<defs>
		<path id="SVGID_241_" d="M299.4,66.6L299.4,66.6h-14.3l0,0c-1,0-1.6-0.6-1.9-1.6l0,0c0.3,1,1,1.6,1.9,1.6H299.4
			c0.6,0,1.3-0.3,1.6-0.6C300.7,66.3,300.1,66.6,299.4,66.6L299.4,66.6z"/>
	</defs>
	<use xlink:href="#SVGID_241_"  style="overflow:visible;fill:#CABD9B;"/>
	<clipPath id="SVGID_66_">
		<use xlink:href="#SVGID_241_"  style="overflow:visible;"/>
	</clipPath>
	<g class="st34">
	</g>
</g>
<g>
	<defs>
		<path id="SVGID_243_" d="M299.4,66.6h-14.3c-1,0-1.6-0.6-1.9-1.6l0,0c0,0.3,0.3,0.6,0.3,0.6l0,0h0.3c0.3,0.3,0.3,0.3,0.3,0.3l0,0
			c0,0,0,0,0-0.3H301h0.3c0,0,0-0.3,0-0.6l0,0c0,0.3,0,0.6-0.3,1C300.7,66.3,300.1,66.6,299.4,66.6L299.4,66.6z"/>
	</defs>
	<use xlink:href="#SVGID_243_"  style="overflow:visible;fill:#CABD9B;"/>
	<clipPath id="SVGID_68_">
		<use xlink:href="#SVGID_243_"  style="overflow:visible;"/>
	</clipPath>
	<g class="st35">
	</g>
</g>
<g>
	<defs>
		<path id="SVGID_245_" d="M283.6,65.7L283.6,65.7L283.6,65.7c0,0-0.3-0.3-0.3-0.6l0,0C283.3,65.4,283.6,65.7,283.6,65.7L283.6,65.7
			L283.6,65.7z"/>
	</defs>
	<use xlink:href="#SVGID_245_"  style="overflow:visible;fill:#CABD9B;"/>
	<clipPath id="SVGID_70_">
		<use xlink:href="#SVGID_245_"  style="overflow:visible;"/>
	</clipPath>
	<g class="st36">
	</g>
</g>
<g>
	<defs>
		<path id="SVGID_247_" d="M301,65.7h-16.8c0,0,0.3-0.3,0.6-0.3H301c0.3,0,0.3,0,0.3-0.3c0,0.3,0,0.6,0,0.6H301z M283.9,65.7h-0.3
			l0,0c0,0-0.3-0.3-0.3-0.6c0.3,0.3,0.3,0.3,0.3,0.3h0.3V65.7L283.9,65.7z"/>
	</defs>
	<use xlink:href="#SVGID_247_"  style="overflow:visible;fill:#CABD9B;"/>
	<clipPath id="SVGID_72_">
		<use xlink:href="#SVGID_247_"  style="overflow:visible;"/>
	</clipPath>
	<g class="st37">
	</g>
</g>
<path class="st1" d="M301,65.4h-16.2c0.3-0.3,0.6-0.3,1-0.3c1.6,0,9.5-0.6,9.5-0.6s-7.9,0-10.1,0c-1,0-1.3,0.6-1.3,1h-0.3
	c0,0,0,0-0.3-0.3l0,0c0,0,0,0,0-0.3c0-0.3,0-0.3,0.3-0.3h0.3h0.6h7.9h0.6h7.6h0.3c0,0,0,0,0.3,0c0,0,0.3,0,0.3,0.3
	c0,0.3,0,0.3-0.3,0.3l0,0C301.3,65.4,301.3,65.4,301,65.4z M285.2,64.4 M283.3,65.1 M283.3,65.1"/>
<g>
	<defs>
		<path id="SVGID_249_" d="M291.2,68.9c-0.6,0-1.6,0-2.5-0.3c-1.9-0.3-2.2-1.3-2.5-1.6c0.3,0.3,0.6,1.3,2.5,1.6
			C289.6,68.9,290.5,68.9,291.2,68.9c1.3,0,1.9,0,1.9,0l0,0C293.1,68.9,292.4,68.9,291.2,68.9z M286.1,67L286.1,67L286.1,67
			L286.1,67L286.1,67z"/>
	</defs>
	<use xlink:href="#SVGID_249_"  style="overflow:visible;fill:#CABD9B;"/>
	<clipPath id="SVGID_74_">
		<use xlink:href="#SVGID_249_"  style="overflow:visible;"/>
	</clipPath>
	<g class="st38">
	</g>
</g>
<g>
	<defs>
		<path id="SVGID_251_" d="M291.2,68.9c-0.6,0-1.6,0-2.5-0.3c-1.9-0.3-2.2-1.3-2.5-1.6l0,0l0,0c0.3,0,3.5,0.3,4.4,0.6
			c1,0.3,2.5,1.3,2.5,1.3S292.4,68.9,291.2,68.9L291.2,68.9z"/>
	</defs>
	<use xlink:href="#SVGID_251_"  style="overflow:visible;fill:#CABD9B;"/>
	<clipPath id="SVGID_76_">
		<use xlink:href="#SVGID_251_"  style="overflow:visible;"/>
	</clipPath>
	<g class="st39">
	</g>
</g>
<g>
	<defs>
		<path id="SVGID_253_" d="M284.2,66L284.2,66c0,0,0,0,0-0.3l0,0C284.2,66,284.2,66,284.2,66L284.2,66z"/>
	</defs>
	<use xlink:href="#SVGID_253_"  style="overflow:visible;fill:#CABD9B;"/>
	<clipPath id="SVGID_78_">
		<use xlink:href="#SVGID_253_"  style="overflow:visible;"/>
	</clipPath>
	<g class="st40">
	</g>
</g>
<g>
	<defs>
		<path id="SVGID_255_" d="M284.2,65.7L284.2,65.7c0,0,0.3-0.3,0.6-0.3l0,0C284.5,65.4,284.2,65.7,284.2,65.7L284.2,65.7z"/>
	</defs>
	<use xlink:href="#SVGID_255_"  style="overflow:visible;fill:#CABD9B;"/>
	<clipPath id="SVGID_80_">
		<use xlink:href="#SVGID_255_"  style="overflow:visible;"/>
	</clipPath>
	<g class="st41">
	</g>
</g>
<g>
	<defs>
		<path id="SVGID_257_" d="M284.8,65.4L284.8,65.4c0.3-0.3,0.6-0.3,1-0.3c1.6,0,9.2-0.3,9.5-0.6h-10.1l0,0c2.2,0,10.1,0,10.1,0
			s-7.9,0.6-9.5,0.6C285.5,65.1,285.2,65.1,284.8,65.4L284.8,65.4z"/>
	</defs>
	<use xlink:href="#SVGID_257_"  style="overflow:visible;fill:#CABD9B;"/>
	<clipPath id="SVGID_82_">
		<use xlink:href="#SVGID_257_"  style="overflow:visible;"/>
	</clipPath>
	<g class="st42">
	</g>
</g>
<g>
	<defs>
		<path id="SVGID_259_" d="M284.2,66c0,0,0,0-0.3-0.3h0.3C284.2,66,284.2,66,284.2,66L284.2,66z"/>
	</defs>
	<use xlink:href="#SVGID_259_"  style="overflow:visible;fill:#CABD9B;"/>
	<clipPath id="SVGID_84_">
		<use xlink:href="#SVGID_259_"  style="overflow:visible;"/>
	</clipPath>
	<g class="st43">
	</g>
</g>
<g>
	<defs>
		<path id="SVGID_261_" d="M284.2,65.7h-0.3v-0.3h1C284.5,65.4,284.2,65.7,284.2,65.7L284.2,65.7z"/>
	</defs>
	<use xlink:href="#SVGID_261_"  style="overflow:visible;fill:#CABD9B;"/>
	<clipPath id="SVGID_86_">
		<use xlink:href="#SVGID_261_"  style="overflow:visible;"/>
	</clipPath>
	<g class="st44">
	</g>
</g>
<g>
	<defs>
		<path id="SVGID_263_" d="M284.8,65.4h-1c0-0.3,0.3-1,1.3-1h10.1c-0.3,0.3-7.9,0.6-9.5,0.6C285.5,65.1,285.2,65.1,284.8,65.4
			L284.8,65.4z"/>
	</defs>
	<use xlink:href="#SVGID_263_"  style="overflow:visible;fill:#CABD9B;"/>
	<clipPath id="SVGID_88_">
		<use xlink:href="#SVGID_263_"  style="overflow:visible;"/>
	</clipPath>
	<g class="st45">
	</g>
</g>
<path class="st1" d="M301.6,65.1h-0.3c0,0.3-0.6,1.9-1.9,1.6c0,0-0.3,0.6-1,1c-0.3,0.3-0.6,0.6-1.3,0.6c-1.3,0.6-3.2,1-5.1,1
	c-1.6,0-3.5-0.3-4.4-0.6c-1-0.3-1.6-0.6-1.9-1c-0.3-0.3-0.6-0.6-0.6-1h-0.3c-0.3,0-0.3,0-0.3,0c-0.3,0-0.3-0.3-0.6-0.3
	c-0.6-0.6-0.6-1.3-0.6-1.6c0,0,0.3-0.3,0.6-0.3c1.9,0,9.8,0,14.3,0.3C300.4,64.7,301.6,65.1,301.6,65.1z"/>
<path class="st1" d="M262.3,22.9c1,2.9-0.6,4.8-0.6,4.8s0-3.2-0.6-4.8H262.3z"/>
<path class="st1" d="M270.6,81.2c0,0,6.7-6.3,7.3-10.8c0.6-5.4-2.9,1.6-3.5,2.5C274.1,73.6,268,81.9,270.6,81.2z"/>
<path class="st1" d="M253.1,24.5c0,0,5.1-2.5,10.8-2.5c6,0,9.2,2.5,9.2,2.5l-0.6-2.5c0,0-3.5-3.5-9.8-2.9c-6,0.3-8.9,2.9-8.9,2.9
	L253.1,24.5z"/>
<path class="st1" d="M256,20.7c0,0-2.5,1-4.1,1.9c-1.6,1-0.3-1.6-0.3-1.6l4.4-1.9C256,19.1,256,20.1,256,20.7z"/>
<path class="st1" d="M255.4,24.8c0,0-3.2,0.6-4.4,1.6c-1.6,1,0-1.3,0-1.3l4.4-1.6C255.4,23.5,255.4,24.2,255.4,24.8z"/>
</svg>
