<svg width="121" height="101" viewBox="0 0 121 101" fill="none" xmlns="http://www.w3.org/2000/svg">
<path d="M49.451 92.168H36.1541V94.459H51.6781V93.314C51.6781 88.998 55.1881 85.488 59.5041 85.488C63.8201 85.488 67.3301 88.998 67.3301 93.314V94.459H83.1111V92.168H69.5571C69.1681 88.738 67.0371 85.857 64.0931 84.344L64.563 84.345L64.6571 52.995L68.6361 46.642H50.4681L54.4451 52.993V84.341H54.9191C51.9731 85.854 49.84 88.736 49.451 92.168ZM54.605 48.933H64.4981L62.368 52.335L62.2731 83.627C61.3871 83.373 60.4691 83.197 59.5031 83.197C58.5381 83.197 57.6201 83.373 56.7351 83.627V52.337L54.605 48.933Z" fill="#C1AE83"/>
<path d="M51.4711 30.604L51.7691 29.913C51.8581 29.708 54.0071 24.882 59.5041 24.882C64.5621 24.882 66.6651 29.702 66.7501 29.904L67.0441 30.609H114.948V28.318H68.5191C67.6781 26.769 65.2351 23.233 60.6501 22.699V15.893L68.0241 8.519L59.5041 0L50.9861 8.519L58.3591 15.893V22.692C53.4301 23.198 50.8781 26.765 50.0121 28.317H3.76605V30.608H50.716L51.4711 30.604ZM59.5041 3.239L64.785 8.519L59.5041 13.8L54.2251 8.519L59.5041 3.239Z" fill="#C1AE83"/>
<path d="M120.394 73.726C120.333 73.627 120.236 73.566 120.151 73.491L120.495 73.371L107.9 37.098H110.936V34.807H67.998L67.243 34.811L66.945 35.502C66.855 35.707 64.707 40.534 59.21 40.534C54.152 40.534 52.049 35.714 51.964 35.512L51.67 34.807H9.60205V37.098H12.646L0.0400444 73.95L0.0750443 73.962C-0.0239557 74.254 -0.0369553 74.57 0.109045 74.849C2.85604 80.127 8.25004 83.406 14.183 83.406C20.118 83.406 25.511 80.128 28.256 74.849C28.441 74.494 28.427 74.068 28.22 73.726C28.16 73.627 28.062 73.567 27.977 73.492L28.322 73.372L15.728 37.099H50.196C51.106 38.776 53.859 42.825 59.211 42.825C64.921 42.825 67.771 38.77 68.703 37.099H104.818L92.214 73.95L92.249 73.962C92.15 74.254 92.137 74.57 92.283 74.849C95.028 80.127 100.421 83.406 106.356 83.406C112.29 83.406 117.684 80.128 120.431 74.849C120.615 74.494 120.601 74.068 120.394 73.726ZM14.183 81.115C9.76704 81.115 5.70104 78.991 3.16904 75.465H25.196C22.665 78.992 18.599 81.115 14.183 81.115ZM2.72704 73.175L14.191 39.661L25.829 73.175H2.72704ZM106.355 81.115C101.939 81.115 97.873 78.991 95.342 75.465H117.369C114.837 78.992 110.771 81.115 106.355 81.115ZM94.9 73.175L106.364 39.658L118.004 73.175H94.9Z" fill="#C1AE83"/>
<path d="M90.236 98.371H28.199V100.662H90.236V98.371Z" fill="#C1AE83"/>
</svg>
