<svg width="388" height="104" viewBox="0 0 388 104" fill="none" xmlns="http://www.w3.org/2000/svg">
<path d="M185.976 38.763H173.887V58.669H167.965V33.179H191.9V58.669H185.976V38.763Z" fill="white"/>
<path d="M198.994 58.669V33.179C200.547 33.179 205.355 33.082 207.441 33.082C216.036 33.082 218.803 37.209 218.803 42.113C218.803 47.306 214.967 51.288 208.316 51.288C207.587 51.288 206.034 51.239 204.916 51.142V58.668H198.994V58.669ZM204.916 38.763V45.511C205.937 45.608 207.101 45.705 208.122 45.705C210.646 45.705 212.491 44.542 212.491 42.114C212.491 39.83 211.083 38.667 208.072 38.667C207.15 38.666 205.888 38.714 204.916 38.763Z" fill="white"/>
<path d="M229.681 33.131H234.973L246.869 58.668H240.508L238.13 53.423H226.138L223.76 58.668H217.789L229.681 33.131ZM228.614 47.889H235.652L232.158 40.073L228.614 47.889Z" fill="white"/>
<path d="M250.465 33.276C252.02 33.179 257.019 33.035 260.03 33.035C266.827 33.035 269.498 35.85 269.498 39.346C269.498 42.015 268.139 44.249 265.565 45.268V45.317C268.526 45.85 270.371 47.648 270.371 50.949C270.371 56.288 265.759 58.862 259.643 58.862C256.923 58.862 252.117 58.765 250.466 58.619V33.276H250.465ZM256.389 38.763V43.229H260.079C261.971 43.229 263.573 42.549 263.573 40.898C263.573 39.345 262.36 38.616 259.932 38.616C259.011 38.617 257.215 38.666 256.389 38.763ZM256.389 48.472V53.037C256.922 53.134 258.767 53.28 260.126 53.28C262.943 53.28 264.399 52.454 264.399 50.803C264.399 49.25 262.894 48.472 260.369 48.472H256.389Z" fill="white"/>
<path d="M288.388 32.839C296.641 32.839 302.709 37.888 302.709 45.997C302.709 53.717 296.641 59.202 288.388 59.202C280.182 59.202 274.114 54.153 274.114 45.997C274.114 38.617 279.843 32.839 288.388 32.839ZM288.388 53.62C293.631 53.62 296.398 50.27 296.398 45.997C296.398 41.385 292.904 38.424 288.388 38.424C283.776 38.424 280.425 41.385 280.425 45.997C280.425 50.317 283.922 53.62 288.388 53.62Z" fill="white"/>
<path d="M167.965 95.088V69.598H173.887V85.62L187.385 69.598H192.58V95.088H186.656V79.066L173.16 95.088H167.965Z" fill="white"/>
<path d="M227.543 75.183H215.404V79.067C216.326 78.921 218.221 78.873 219.58 78.873C225.648 78.873 229.338 81.591 229.338 86.737C229.338 92.564 225.358 95.282 218.268 95.282C214.724 95.282 211.131 95.088 209.482 95.088V69.598H227.543V75.183ZM215.405 84.601V89.601C216.523 89.65 217.59 89.7 218.901 89.7C222.299 89.7 223.417 88.728 223.417 87.029C223.417 85.33 222.155 84.408 218.852 84.408C217.929 84.408 216.474 84.408 215.405 84.601Z" fill="white"/>
<path d="M235.168 95.088V69.598H241.092V85.62L254.59 69.598H259.783V95.088H253.861V79.066L240.363 95.088H235.168Z" fill="white"/>
<path d="M264.354 91.009L267.607 86.979C269.306 88.63 271.83 90.039 275.131 90.039C278.045 90.039 279.647 89.117 279.647 87.465C279.647 86.009 278.482 84.941 275.035 84.941H271.248V79.357H274.841C276.83 79.357 278.578 78.533 278.578 77.125C278.578 75.57 277.219 74.843 275.084 74.843C272.607 74.843 270.229 75.57 268.674 77.464L265.227 73.434C267.121 71.056 270.616 69.258 275.278 69.258C280.424 69.258 284.503 71.782 284.503 76.444C284.503 78.726 283.484 80.813 281.2 81.833V81.979C284.26 82.659 285.619 85.134 285.619 88.047C285.619 92.756 281.346 95.62 275.084 95.62C269.5 95.622 265.859 93.048 264.354 91.009Z" fill="white"/>
<path d="M309.461 84.892H297.372V95.089H291.448V69.599H297.372V79.31H309.461V69.599H315.383V95.089H309.461V84.892Z" fill="white"/>
<path d="M322.477 69.598H339.907V75.182H328.401V79.455H338.742V85.037H328.401V89.503H340.344V95.087H322.477V69.598V69.598Z" fill="white"/>
<path d="M367.779 92.661C366.031 94.36 362.341 95.622 358.602 95.622C349.766 95.622 344.085 90.379 344.085 82.417C344.085 75.426 348.747 69.259 358.458 69.259C362.245 69.259 365.399 70.424 367.197 71.88L364.526 76.348C362.924 75.57 361.225 74.843 358.505 74.843C353.796 74.843 350.398 77.464 350.398 82.416C350.398 86.882 353.748 90.039 359.137 90.039C361.272 90.039 363.603 89.456 365.496 88.194L367.779 92.661Z" fill="white"/>
<path d="M69.672 93.837H56.375V96.128H71.899V94.983C71.899 90.667 75.409 87.157 79.725 87.157C84.041 87.157 87.551 90.667 87.551 94.983V96.128H103.332V93.837H89.778C89.389 90.407 87.258 87.526 84.314 86.013L84.784 86.014L84.878 54.664L88.857 48.311H70.689L74.666 54.662V86.01H75.14C72.194 87.523 70.061 90.405 69.672 93.837ZM74.826 50.602H84.719L82.589 54.004L82.494 85.296C81.608 85.042 80.69 84.866 79.724 84.866C78.759 84.866 77.841 85.042 76.956 85.296V54.006L74.826 50.602Z" fill="white"/>
<path d="M71.692 32.273L71.99 31.582C72.079 31.377 74.228 26.551 79.725 26.551C84.783 26.551 86.886 31.371 86.971 31.573L87.265 32.278H135.169V29.987H88.74C87.899 28.438 85.456 24.902 80.871 24.368V17.562L88.245 10.188L79.725 1.669L71.207 10.188L78.58 17.562V24.361C73.651 24.867 71.099 28.434 70.233 29.986H23.987V32.277H70.937L71.692 32.273ZM79.725 4.908L85.006 10.188L79.725 15.469L74.446 10.188L79.725 4.908Z" fill="white"/>
<path d="M140.615 75.395C140.554 75.296 140.457 75.235 140.372 75.16L140.716 75.04L128.121 38.767H131.157V36.476H88.219L87.464 36.48L87.166 37.171C87.076 37.376 84.928 42.203 79.431 42.203C74.373 42.203 72.27 37.383 72.185 37.181L71.891 36.476H29.823V38.767H32.867L20.261 75.619L20.296 75.631C20.197 75.923 20.184 76.239 20.33 76.518C23.077 81.796 28.471 85.075 34.404 85.075C40.339 85.075 45.732 81.797 48.477 76.518C48.662 76.163 48.648 75.737 48.441 75.395C48.381 75.296 48.283 75.236 48.198 75.161L48.543 75.041L35.949 38.768H70.417C71.327 40.445 74.08 44.494 79.432 44.494C85.142 44.494 87.992 40.439 88.924 38.768H125.039L112.435 75.619L112.47 75.631C112.371 75.923 112.358 76.239 112.504 76.518C115.249 81.796 120.642 85.075 126.577 85.075C132.511 85.075 137.905 81.797 140.652 76.518C140.836 76.163 140.822 75.737 140.615 75.395ZM34.404 82.784C29.988 82.784 25.922 80.66 23.39 77.134H45.417C42.886 80.661 38.82 82.784 34.404 82.784ZM22.948 74.844L34.412 41.33L46.05 74.844H22.948ZM126.576 82.784C122.16 82.784 118.094 80.66 115.563 77.134H137.59C135.058 80.661 130.992 82.784 126.576 82.784ZM115.121 74.844L126.585 41.327L138.225 74.844H115.121Z" fill="white"/>
<path d="M110.457 100.04H48.42V102.331H110.457V100.04Z" fill="white"/>
</svg>
