<svg width="542" height="206" viewBox="0 0 542 206" fill="none" xmlns="http://www.w3.org/2000/svg">
<path d="M59.6 139.4C58.6 143.8 55.2 149.9 53.6 155.6C52.6 158.1 49.5 148.9 49.5 151.2C49.5 152.8 53 166.1 54.6 167C60.3 144.2 65.7 150.2 73.9 137.5C78.3 130.8 81.2 122 83.1 114.4C78 121.7 76.4 129.9 70.1 135.3C70.4 119.1 86.9 112.2 87.5 96.9C85 99.8 83.7 103.9 81.5 106.7C77.7 111.8 73.3 115.6 69.8 120.6C65.9 126.7 61.2 132.4 59.6 139.4Z" fill="#CABD9B"/>
<path d="M52.9 139.7C53.2 139.7 53.2 139.7 53.2 139.4C54.2 137.8 54.2 132.7 56.7 128C58.9 123.6 63.4 119.1 66.2 115.6C68.7 112.7 77.3 99.8 78.9 96.6C76.7 97.9 60.8 112.8 58.3 115.6C52.9 121.9 50.1 131.4 52.9 139.7Z" fill="#CABD9B"/>
<path d="M75.1 93.4C71 93.7 64.6 95.9 60.8 97.5C56.4 99.7 56.4 102.6 54.8 113.3C57.3 109.8 59.2 104.4 62.7 101.6C65.9 98.5 71.3 97.2 75.1 93.4Z" fill="#CABD9B"/>
<path d="M17.4 105.8L21.8 104.5L20.8 97.5L16.4 99.7C15.9 105.8 15.5 102.6 17.4 105.8Z" fill="#CABD9B"/>
<path d="M78.6 142.5C75.1 155.8 71.6 168.2 70.4 170.7C69.4 172.9 65 177.7 64.1 183.1C63.1 189.4 60.9 195.5 60.9 195.5C60.3 181.9 63.8 169.2 69.8 157.1C73.2 151.1 77 141.6 78.6 142.5Z" fill="#CABD9B"/>
<path d="M84 133.7C89.7 129.3 93.5 125.8 97 118.2C97 112.5 96.4 102.7 96.4 97.3L94.2 101.4C92.2 116.5 90.3 120 84 133.7Z" fill="#CABD9B"/>
<path d="M42.8 175.5C42.8 173.9 44.1 166 43.8 164.7C43.5 163.4 22.2 103.5 22.2 103.5C21.2 102.2 30.4 101.6 30.8 101C30.8 101 21.9 102 21.6 100.4L18.7 90.9L13.9 96L15.8 102L7.9 105.5C7.9 105.5 16.5 104.2 17.1 104.9C18.1 105.5 35.8 168.6 35.8 168.6L42.8 175.5Z" fill="#CABD9B"/>
<path d="M39.9 171.1V164.8L24.1 118.2C24.1 118.2 23.5 121.4 23.5 122C23.2 122.6 37.1 166.4 37.1 166.4L39.9 171.1Z" fill="#CABD9B"/>
<path d="M64 202.8C64 202.8 67.5 194.9 67.2 194.2C66.9 193.6 69.1 183.7 70.1 182.8C70.7 181.8 73.3 179.9 73.3 179.9C73.3 179.9 69.8 189.7 69.8 194.5C69.4 199 64 202.8 64 202.8Z" fill="#CABD9B"/>
<path d="M118.5 39.9L116 41.2C116 43.4 117.9 41.5 121.1 41.5C122.4 41.5 124.3 44 126.5 44C130 44 129.4 43 132.8 42.4C135.7 41.1 137.2 42.7 132.8 40.8C129 38.9 131.8 41.8 127.7 38.6L127.1 31.9L127.4 32.9L124.9 37C123.3 32.2 124.6 32.2 124.6 27.2L121.1 25.6C121.4 30.7 122.7 36.7 118.5 39.9Z" fill="#CABD9B"/>
<path d="M121.1 25.6L123.6 26.9L124.6 27.2C124.9 25.3 127.5 21.5 125.6 20.2C124.6 19.9 121.5 19.2 120.8 18.6L121.1 25.6Z" fill="#CABD9B"/>
<path d="M78.6 15.1L79.2 15.7L82.7 16.7C81.7 13.2 84.9 16.7 80.2 12.9L77.3 12.3L78.6 15.1Z" fill="#CABD9B"/>
<path d="M56.7 71.2C56.7 71.2 61.5 83.6 70.3 86.7L82.3 86.4L77.5 81C72.7 76.6 72.7 78.8 68 72.1L64.5 68.6C66.4 74.6 72.4 77.2 72.4 83.8C72.4 85.1 66.4 83.2 65.1 78.7C64.5 77.7 62.9 74.3 62.2 72.7C61.9 71.7 60.9 68.6 59 67C58 66 57.1 67.6 56.5 66.7C55.5 65.7 56.5 62.6 56.5 61.3C56.2 60.3 55.9 61.3 55.2 61.3C53.9 69.3 46 79.2 46.6 88C46.6 87.7 46.9 87 47.2 86.4C48.5 82.7 52.9 72.8 56.7 71.2Z" fill="#CABD9B"/>
<path d="M66.9 69C66.9 69 72.6 76 77.4 76.9C82.8 78.2 75.8 74 74.9 73.4C74.5 72.8 66.9 66.2 66.9 69Z" fill="#CABD9B"/>
<path d="M84 75.4C84 75.4 83.7 64.3 83 64.3C82.4 64.3 71 64.9 71 64.9C71 64.9 74.2 73.2 84 75.4Z" fill="#CABD9B"/>
<path d="M68.1 60.8C67.1 60.5 74.1 57 81.1 52.2C85.9 48.7 89.7 44.3 90.6 41.4C91.6 38.5 92.2 38.9 93.5 40.1C93.5 40.4 89.4 47.4 89.7 48C89.7 48.3 92.2 45.5 94.1 43.9C94.7 43.3 94.1 41 94.4 41.4C94.7 42.4 96.3 45.2 96.3 45.2C96.6 45.2 102.6 43.6 103.6 43.6C103.9 43.6 104.9 43.6 105.5 43.6C105.5 43.6 103.6 44.2 102 44.9C100.4 45.5 98.2 46.8 98.2 46.8C100.1 46.8 100.4 45.8 100.7 46.5C100.7 46.8 100.4 50.3 98.2 52.2C94.4 55.1 91.9 58.5 91.9 58.5C91.9 58.5 91.9 55.6 91.6 53.1C91.6 51.2 91.3 49.3 91.3 49.3C91.3 49 84.3 54.1 79.9 57.5C78.9 58.1 84.7 58.5 83.7 58.8C78.3 61.1 69.4 60.8 68.1 60.8Z" fill="#CABD9B"/>
<path d="M83.4 56.4L86.6 58L87.9 66.6C87.9 66.6 90.8 66 90.8 65.3C91.1 63.1 90.8 54.5 89.5 53.3C88.1 52.5 84.6 56.4 83.4 56.4Z" fill="#CABD9B"/>
<path d="M75.8 45.9C75.8 45.9 75.5 38.9 78.7 36.1C81.6 33.6 80.6 34.8 80.6 34.8L80.9 44.3C80.9 44.3 82.8 44.3 83.8 44C84.4 43.4 85.4 45.9 85.4 45.9C85.4 45.9 86.4 42.1 85.7 41.8C83.5 39.9 85.1 35.5 86.3 40.8C86.3 40.8 86.3 40.8 86.3 41.1C86.6 41.7 86 45.2 86.3 44.9C86.6 44.6 87.9 43.6 88.5 41.4C89.5 39.2 89.8 35.7 89.8 35.4C89.8 34.4 86.3 35.4 86 34.8C85.4 32.3 86 26.9 86 26.9L82.8 25.6C82.8 25.6 83.1 28.8 80.9 31.3C78.7 33.5 75.8 36.1 75.2 36.1C74.6 36.1 70.4 33.6 68.5 29.1C66.2 24.7 68.1 19 68.1 19C68.1 19 73.5 13.3 75.1 13.3C76.7 13.6 80.2 16.8 81.8 19C83.4 20.9 83.4 21.5 83.7 22.2C84 22.2 84.3 22.5 85.3 23.2C85.3 23.5 85.6 23.5 85.9 23.5L85.6 13C85.6 13 78.3 13.3 75.1 3.5C74.8 3.5 72.6 7.9 69.7 11.1C68.1 12.4 64 13 64 13.6L63.7 26.6C63.7 26.6 61.2 31 59.9 32.3C58.6 33.6 61.2 36.4 58.9 39.3C57 41.8 51 46.6 51 46.6L50 61.2C50 61.2 52.9 55.2 56.7 50.1C58.6 47.9 60.8 46.6 62.4 45C63.7 43.7 68.7 44.7 69.1 43.7C70.7 39.6 70.4 36.7 70.4 36.7L75.8 45.9Z" fill="#CABD9B"/>
<path d="M95.7 65.9L103.3 41.2V41.8L96.3 65.9H95.7Z" fill="#CABD9B"/>
<path d="M104.3 65.9H104L103.4 41.8V41.2C103.4 41.5 103.4 41.5 103.4 41.5C103.7 41.5 103.7 41.5 103.7 41.5V41.8L104.3 65.9Z" fill="#CABD9B"/>
<path d="M113.2 65.9H112.6L103.7 41.8V41.5C103.7 41.5 104 41.5 104 41.8L113.2 65.9Z" fill="#CABD9B"/>
<path d="M113.5 66.8H113.2C113.2 66.5 113.2 66.5 113.2 66.5C112.9 66.2 112.6 65.9 111.9 65.9C109.7 65.9 101.4 65.9 101.4 65.9C101.4 65.9 109.6 66.5 111.2 66.5C111.5 66.5 111.8 66.5 112.2 66.8H95.7C95.7 66.8 95.7 66.8 95.7 66.5C95.4 66.5 95.4 66.5 95.4 66.2C95.4 65.9 95.4 65.9 95.7 65.9H96.3H103.9H104.2H112.4H113H113.3C113.3 65.9 113.6 65.9 113.6 66.2C113.6 66.5 113.6 66.5 113.3 66.5C113.5 66.8 113.5 66.8 113.5 66.8Z" fill="#CABD9B"/>
<path d="M157.5 65.9H156.9L149.9 41.8V41.2L157.5 65.9Z" fill="#CABD9B"/>
<path d="M149.3 65.9H149L149.6 41.8V41.5H149.9C149.9 41.5 149.9 41.5 149.9 41.2V41.8L149.3 65.9Z" fill="#CABD9B"/>
<path d="M140.7 65.9H140.4L149.3 41.8C149.3 41.5 149.6 41.5 149.6 41.5V41.8L140.7 65.9Z" fill="#CABD9B"/>
<path d="M142.6 43.4C141.3 43.4 140.4 43.1 138.8 42.8C135.3 41.8 131.5 40.9 128.7 40.6C128.4 40 128.4 39.3 128.4 38.7C131.3 38.7 134.7 40.6 139.5 41.6C141.1 41.9 142.4 42.2 143.6 42.2C145.2 42.2 146.5 41.9 147.4 41.6C147.4 41.9 147.4 42.2 147.7 42.2H148C146.4 42.7 144.8 43.4 142.6 43.4Z" fill="#CABD9B"/>
<path d="M141 44C145.1 44 148.6 42.1 149.9 41.5C149.9 41.5 149.9 41.5 149.9 41.2C149.9 41.5 149.9 41.5 149.9 41.5H149.6C149.6 41.5 149.3 41.5 149.3 41.8C147.7 42.7 144.8 44 141 44ZM142.6 43.4C141.3 43.4 140.4 43.1 138.8 42.8C135.3 41.8 131.5 40.9 128.7 40.6C131.6 40.9 135.4 41.9 138.8 42.8C140.4 43 141.4 43.4 142.6 43.4Z" fill="#CABD9B"/>
<path d="M143.6 42.1C145.2 42.1 146.5 41.8 147.4 41.5C146.4 41.8 145.2 42.1 143.6 42.1ZM143.9 41.5C142 41.5 139.5 41.2 136.6 39.9C132.5 38.3 129.9 37.7 128.4 37.7C130 37.7 132.5 38.3 136.6 39.9C139.5 41.1 142 41.5 143.9 41.5Z" fill="#CABD9B"/>
<path d="M147.7 42.1C147.4 42.1 147.4 41.8 147.4 41.5V41.2C147.4 41.1 147.1 41.8 147.7 42.1C147.7 41.8 147.7 41.8 147.7 41.8C147.7 41.8 148.7 38.9 149.9 38.9C149.9 38.9 150.2 39.2 150.5 39.5C150.8 39.5 150.8 39.5 150.8 39.8C150.8 39.5 150.5 39.2 150.5 38.8C151.1 39.8 150.8 40.4 149.9 41C149.3 41.6 148.6 42 148.6 42C148.3 42 148 42 148 42H147.7V42.1ZM147.4 41.1C147.7 40.5 148.4 38.2 149.6 38.2C148.3 38.3 147.4 41.1 147.4 41.1Z" fill="#CABD9B"/>
<path d="M147.7 42.1C147.1 41.8 147.4 41.1 147.4 41.1C147.4 41.1 148.4 38.2 149.6 38.2C148.3 38.2 147.4 41.1 147.4 41.1C147.4 41.1 147.1 41.8 147.7 42.1ZM150.9 39.9C150.9 39.6 150.9 39.6 150.6 39.6C150.3 39.3 150 39 150 39C150 39 150.3 39.3 150.6 39.6C150.9 39.6 150.9 39.6 150.9 39.9Z" fill="#CABD9B"/>
<path d="M150.6 38.9C150.3 38.6 150 38.3 149.6 38.3C149.9 38.3 150.2 38.6 150.6 38.9Z" fill="#CABD9B"/>
<path d="M123.6 40.5C123.9 39.9 123.9 39.2 123.9 38.6C124.2 38.6 124.5 38.6 124.9 38.6C124.9 39.2 124.9 39.9 124.9 40.5C124.6 40.5 124.2 40.5 123.6 40.5Z" fill="#CABD9B"/>
<path d="M125.2 41.1C125.2 41.1 125.2 41.4 125.5 40.5C125.5 39.9 125.5 39.2 125.5 38.6C125.5 38.3 125.5 38 125.5 37.6C125.8 36.6 125.8 36 125.8 35.7H127.4C127.4 36 127.7 36.7 127.7 37.6C127.7 37.9 127.7 38.2 127.7 38.6C127.7 39.2 128 39.9 128 40.5C128 41.1 128 40.8 128 41.5C130.6 41.8 126.1 38.3 125.2 41.1ZM128.4 35.4H124.9C125.2 35.4 125.2 35.1 125.2 35.1H128.1C128.1 35.1 128.1 35.1 128.1 34.8H128.4C128.4 34.8 128.4 34.8 128.1 34.8H125.2V35.1L128.4 35.4ZM125.2 35.1C125.2 34.8 124.9 34.8 125.2 34.8C125.2 34.5 126.2 34.2 126.2 34.2H127.2C127.2 34.2 128.2 34.5 128.2 34.8C128.5 34.8 128.5 34.8 128.5 34.8H128C128 35.1 128 35.1 128 35.1L128.3 35.4L125.2 35.1ZM126.1 34.2V33.6C126.1 33.6 124.8 33.3 124.8 32.3C124.8 31 125.8 29.1 126.7 28.8C127.3 29.1 128.3 31 128.3 32.3C128.3 33.3 127 33.6 127 33.6H126V34.2H126.1Z" fill="#CABD9B"/>
<path d="M127.7 34.2H125.8V33.5H127.7H125.8V34.2H127.7Z" fill="#CABD9B"/>
<path d="M127.7 34.2H125.8V33.5H127.7V34.2Z" fill="#CABD9B"/>
<path d="M128.7 35.1H124.6V34.8V35.1H128.7L129 34.8L128.7 35.1Z" fill="#CABD9B"/>
<path d="M128.7 35.1H124.6V34.8H128.7C128.7 34.8 128.7 34.8 129 34.8L128.7 35.1Z" fill="#CABD9B"/>
<path d="M128 35.8H128.3C128.3 35.8 128.9 35.8 128.9 35.5H124.5H128.9C128.9 35.8 128.3 35.8 128.3 35.8H128Z" fill="#CABD9B"/>
<path d="M128 35.8H125.1H124.8C124.8 35.8 124.5 35.8 124.5 35.5H128.9C128.9 35.8 128.3 35.8 128.3 35.8H128Z" fill="#CABD9B"/>
<path d="M126.8 41.8C122 41.8 119.5 42.4 117.3 43.1C115.7 43.4 114.4 43.7 112.9 43.7C106.6 44.3 102.4 41.2 102.4 41.2H102.1L102.4 40.9C102.4 40.6 102.4 39.9 102.7 39.3C103 39 103.3 39 103.7 39C104 39 104.3 39 104.7 39.3C105 39.6 105.3 39.9 105.3 40.3C105.6 40.6 105.6 40.9 105.9 41.3C105.9 41.6 105.9 41.6 106.2 41.6L106.5 41.9C108.1 41.9 110.3 42.2 112.5 41.9C114.7 41.3 116.9 40.6 118.8 40C119.4 39.7 120.1 39.4 120.7 39C125.1 37.7 128 37.7 132.7 39C133 39.3 133.7 39.6 134.6 40C136.2 40.6 138.4 41.3 140.9 41.9C142.8 42.2 145 41.9 146.9 41.9L147.2 41.6C147.2 41.6 147.5 41.6 147.5 41.3C147.5 41 147.8 40.7 147.8 40.3C148.1 40 148.1 39.7 148.4 39.3C148.7 39 149 39 149.4 39C150 39 150.4 39 150.4 39.3C150.7 39.9 151 40.6 151 40.9V41.2C151 41.2 146.6 44.4 140.5 43.7C138.9 43.7 137.3 43.4 136.1 43.1C133.8 42.4 131.2 41.8 126.8 41.8Z" fill="#CABD9B"/>
<path d="M125.8 33.5H127.7V34.1C127.7 34.1 128.7 34.4 128.7 34.7C129 34.7 128.7 35 128.7 35C128.7 35 128.7 35 129 35.3C129 35.6 128.7 35.6 128 35.6C127.7 35.9 125.1 35.6 125.1 35.6C125.1 35.6 124.5 35.6 124.5 35.3C124.5 35 124.8 35 124.8 35C124.8 35 124.5 35 124.5 34.7C124.5 34.7 124.5 34.4 125.8 34.1V33.5Z" fill="#CABD9B"/>
<path d="M148.7 70.6C145.2 70.6 143.3 69.6 142 69C143.3 69.7 145.2 70.6 148.7 70.6C153.1 70.6 155 69 155.7 68.1C155 69 153.1 70.6 148.7 70.6Z" fill="#CABD9B"/>
<path d="M148.7 70.6C145.2 70.6 143.3 69.6 142 69C141.7 68.7 141.7 68.4 141.4 68C141.4 68 141.4 68 141.7 68H155.6C155 69 153.1 70.6 148.7 70.6ZM142.6 68.4C142.6 68.7 142.9 69.7 145.1 70C146.1 70.3 147 70.3 147.6 70.3C148.6 70.3 149.2 70.3 149.2 70.3C149.2 70.3 147.9 69.3 146.7 69C145.8 68.7 142.6 68.4 142.6 68.4Z" fill="#CABD9B"/>
<path d="M155.9 68.1H155.6H141.7C141.4 68.1 141.4 68.1 141.4 68.1C140.4 68.1 139.8 67.5 139.8 66.5C139.8 67.5 140.8 68.1 141.7 68.1H155.9C156.5 68.1 157.2 67.8 157.5 67.5C157.2 67.8 156.6 68.1 155.9 68.1Z" fill="#CABD9B"/>
<path d="M155.9 68.1H141.6C140.6 68.1 139.7 67.5 139.7 66.5C139.7 66.8 139.7 67.1 139.7 67.1H140.3C140.3 67.4 140.3 67.4 140.3 67.4C140.3 67.4 140.3 67.4 140.6 67.1H157.4C157.4 67.1 157.4 66.8 157.4 66.5C157.4 66.8 157.4 67.1 157.4 67.5C157.2 67.8 156.6 68.1 155.9 68.1Z" fill="#CABD9B"/>
<path d="M157.5 67.1H140.7C140.7 67.1 140.7 66.8 141 66.8H157.5C157.5 66.8 157.5 66.8 157.5 66.5C157.5 66.8 157.5 67.1 157.5 67.1ZM140.4 67.1H139.8C139.8 67.1 139.8 66.8 139.8 66.5C139.8 66.8 139.8 66.8 139.8 66.8H140.1C140.1 66.8 140.1 67.1 140.4 67.1Z" fill="#CABD9B"/>
<path d="M157.5 66.8H141C141.3 66.5 141.6 66.5 142 66.5C143.9 66.5 151.8 65.9 151.8 65.9C151.8 65.9 143.6 65.9 141.3 65.9C140.3 65.9 140 66.5 140 66.9H139.7C139.7 66.9 139.7 66.9 139.7 66.6C139.4 66.6 139.4 66.6 139.4 66.3C139.4 66 139.7 66 139.7 66H140.3H140.6H148.8H149.1H156.7H157.3C157.6 66 157.6 66 157.6 66.3C157.6 66.6 157.6 66.6 157.3 66.6C157.5 66.8 157.5 66.8 157.5 66.8Z" fill="#CABD9B"/>
<path d="M147.7 70.3C147.1 70.3 146.1 70.3 145.2 70C143 69.7 142.7 68.7 142.7 68.4C142.7 68.7 143 69.7 145.2 70C146.1 70.3 147.1 70.3 147.7 70.3C148.7 70.3 149.3 70.3 149.3 70.3C149.3 70.3 148.7 70.3 147.7 70.3Z" fill="#CABD9B"/>
<path d="M147.7 70.3C147.1 70.3 146.1 70.3 145.2 70C143 69.7 142.7 68.7 142.7 68.4C142.7 68.4 145.9 68.7 146.8 69C148.1 69.3 149.3 70.3 149.3 70.3C149.3 70.3 148.7 70.3 147.7 70.3Z" fill="#CABD9B"/>
<path d="M140.4 67.4C140.4 67.4 140.4 67.4 140.7 67.1C140.4 67.4 140.4 67.4 140.4 67.4Z" fill="#CABD9B"/>
<path d="M140.7 67.1C140.7 67.1 140.7 66.8 141 66.8C140.7 66.8 140.7 67.1 140.7 67.1Z" fill="#CABD9B"/>
<path d="M141 66.8C141.3 66.5 141.6 66.5 142 66.5C143.6 66.5 151.5 66.2 151.8 65.9H141.3C143.5 65.9 151.8 65.9 151.8 65.9C151.8 65.9 143.9 66.5 142 66.5C141.7 66.5 141.4 66.5 141 66.8Z" fill="#CABD9B"/>
<path d="M140.4 67.4C140.4 67.4 140.4 67.4 140.4 67.1H140.7C140.4 67.4 140.4 67.4 140.4 67.4Z" fill="#CABD9B"/>
<path d="M140.7 67.1H140.4C140.1 67.1 140.1 66.8 140.1 66.8H141.1C140.7 66.8 140.7 67.1 140.7 67.1Z" fill="#CABD9B"/>
<path d="M141 66.8H140C140 66.5 140.3 65.8 141.3 65.8H151.8C151.5 66.1 143.6 66.4 142 66.4C141.7 66.5 141.4 66.5 141 66.8Z" fill="#CABD9B"/>
<path d="M157.8 66.5H157.5C157.5 66.8 157.2 68.4 155.9 68.1C155.9 68.1 155.3 68.7 154.6 69.1C154.3 69.4 154 69.7 153.6 69.7C152.3 70.3 150.1 70.7 148.2 70.7C146.9 70.7 145 70.4 143.8 70.1C143.2 69.8 142.5 69.5 142.2 69.1C141.6 68.8 141.6 68.5 141.2 68.1C141.2 68.1 141.2 68.1 140.9 68.1H140.6C140.3 68.1 140.3 67.8 140.3 67.8C139.7 67.2 139.3 66.5 139.3 66.2C139.3 66.2 139.6 65.9 139.9 65.9C142.1 65.9 149.7 65.9 154.5 66.2C156.6 66.2 157.8 66.5 157.8 66.5Z" fill="#CABD9B"/>
<path d="M104.6 70.6C101.1 70.6 98.9 69.6 97.9 69C98.9 69.7 101.1 70.6 104.6 70.6C109 70.6 110.9 69 111.6 68.1C110.9 69 109 70.6 104.6 70.6Z" fill="#CABD9B"/>
<path d="M104.6 70.6C101.1 70.6 98.9 69.6 97.9 69C97.6 68.7 97.3 68.4 97.3 68H111.6C110.9 69 109 70.6 104.6 70.6ZM98.3 68.4C98.6 68.7 98.9 69.7 100.8 70C101.8 70.3 102.7 70.3 103.3 70.3C104.6 70.3 105.2 70.3 105.2 70.3C105.2 70.3 103.6 69.3 102.7 69C101.7 68.7 98.6 68.4 98.3 68.4Z" fill="#CABD9B"/>
<path d="M111.6 68.1H97.3C96.3 68.1 95.7 67.5 95.4 66.5C95.7 67.5 96.4 68.1 97.3 68.1H111.6C112.2 68.1 112.9 67.8 113.2 67.5C112.8 67.8 112.2 68.1 111.6 68.1Z" fill="#CABD9B"/>
<path d="M111.6 68.1H97.3C96.3 68.1 95.7 67.5 95.4 66.5C95.4 66.8 95.7 67.1 95.7 67.1H96C96.3 67.4 96.3 67.4 96.3 67.4C96.3 67.4 96.3 67.4 96.3 67.1H113.1H113.4C113.4 67.1 113.4 66.8 113.4 66.5C113.4 66.8 113.4 67.1 113.1 67.5C112.8 67.8 112.2 68.1 111.6 68.1Z" fill="#CABD9B"/>
<path d="M95.7 67.1C95.7 67.1 95.4 66.8 95.4 66.5C95.4 66.8 95.7 67.1 95.7 67.1Z" fill="#CABD9B"/>
<path d="M113.2 67.1H96.4C96.4 67.1 96.7 66.8 97 66.8H113.2C113.5 66.8 113.5 66.8 113.5 66.5C113.5 66.8 113.5 67.1 113.5 67.1H113.2ZM96 67.1H95.7C95.7 67.1 95.4 66.8 95.4 66.5C95.7 66.8 95.7 66.8 95.7 66.8H96V67.1Z" fill="#CABD9B"/>
<path d="M113.2 66.8H97C97.3 66.5 97.6 66.5 98 66.5C99.6 66.5 107.5 65.9 107.5 65.9C107.5 65.9 99.6 65.9 97.4 65.9C96.4 65.9 96.1 66.5 96.1 66.9H95.8C95.8 66.9 95.8 66.9 95.5 66.6C95.5 66.6 95.5 66.6 95.5 66.3C95.5 66 95.5 66 95.8 66H96H96.6H104.5H105.1H112.7H113C113 66 113 66 113.3 66C113.3 66 113.6 66 113.6 66.3C113.6 66.6 113.6 66.6 113.3 66.6C113.5 66.8 113.5 66.8 113.2 66.8Z" fill="#CABD9B"/>
<path d="M103.3 70.3C102.7 70.3 101.7 70.3 100.8 70C98.9 69.7 98.6 68.7 98.3 68.4C98.6 68.7 98.9 69.7 100.8 70C101.7 70.3 102.7 70.3 103.3 70.3C104.6 70.3 105.2 70.3 105.2 70.3C105.2 70.3 104.6 70.3 103.3 70.3Z" fill="#CABD9B"/>
<path d="M103.3 70.3C102.7 70.3 101.7 70.3 100.8 70C98.9 69.7 98.6 68.7 98.3 68.4C98.6 68.4 101.8 68.7 102.7 69C103.7 69.3 105.2 70.3 105.2 70.3C105.2 70.3 104.6 70.3 103.3 70.3Z" fill="#CABD9B"/>
<path d="M96.4 67.1C96.4 67.1 96.7 66.8 97 66.8C96.7 66.8 96.4 67.1 96.4 67.1Z" fill="#CABD9B"/>
<path d="M97 66.8C97.3 66.5 97.6 66.5 98 66.5C99.6 66.5 107.2 66.2 107.5 65.9H97.3C99.5 65.9 107.4 65.9 107.4 65.9C107.4 65.9 99.5 66.5 97.9 66.5C97.6 66.5 97.3 66.5 97 66.8Z" fill="#CABD9B"/>
<path d="M96.4 67.4C96.4 67.4 96.4 67.4 96.1 67.1H96.4C96.4 67.4 96.4 67.4 96.4 67.4Z" fill="#CABD9B"/>
<path d="M96.4 67.1H96V66.8H97C96.7 66.8 96.4 67.1 96.4 67.1Z" fill="#CABD9B"/>
<path d="M97 66.8H96C96 66.5 96.3 65.8 97.3 65.8H107.4C107.1 66.1 99.5 66.4 97.9 66.4C97.6 66.5 97.3 66.5 97 66.8Z" fill="#CABD9B"/>
<path d="M113.8 66.5H113.5C113.5 66.8 112.9 68.4 111.6 68.1C111.6 68.1 111.3 68.7 110.6 69.1C110.3 69.4 110 69.7 109.3 69.7C108 70.3 106.1 70.7 104.2 70.7C102.6 70.7 100.7 70.4 99.8 70.1C98.8 69.8 98.2 69.5 97.9 69.1C97.6 68.8 97.3 68.5 97.3 68.1H97C96.7 68.1 96.7 68.1 96.7 68.1C96.4 68.1 96.4 67.8 96.1 67.8C95.5 67.2 95.5 66.5 95.5 66.2C95.5 66.2 95.8 65.9 96.1 65.9C98 65.9 105.9 65.9 110.4 66.2C112.5 66.2 113.8 66.5 113.8 66.5Z" fill="#CABD9B"/>
<path d="M74.5 24.3C75.5 27.2 73.9 29.1 73.9 29.1C73.9 29.1 73.9 25.9 73.3 24.3H74.5Z" fill="#CABD9B"/>
<path d="M82.7 82.7C82.7 82.7 89.4 76.4 90 71.9C90.6 66.5 87.1 73.5 86.5 74.4C86.2 75.1 80.2 83.3 82.7 82.7Z" fill="#CABD9B"/>
<path d="M65.3 25.9C65.3 25.9 70.4 23.4 76.1 23.4C82.1 23.4 85.3 25.9 85.3 25.9L84.7 23.4C84.7 23.4 81.2 19.9 74.9 20.5C68.9 20.8 66 23.4 66 23.4L65.3 25.9Z" fill="#CABD9B"/>
<path d="M68.1 22.1C68.1 22.1 65.6 23.1 64 24C62.4 25 63.7 22.4 63.7 22.4L68.1 20.5C68.1 20.5 68.1 21.5 68.1 22.1Z" fill="#CABD9B"/>
<path d="M67.5 26.2C67.5 26.2 64.3 26.8 63.1 27.8C61.5 28.8 63.1 26.5 63.1 26.5L67.5 24.9C67.5 25 67.5 25.6 67.5 26.2Z" fill="#CABD9B"/>
<path d="M145.5 96.1H130.4V121C130.4 123.2 130.7 124.5 131.2 125.1C131.7 125.7 133.1 126 135.1 126.1V127H121V126.1C123 126 124.3 125.7 124.9 125.1C125.5 124.5 125.7 123.2 125.7 121V100.2C125.7 98 125.4 96.7 124.9 96.1C124.3 95.5 123 95.2 121 95.1V94.2H154.8V95.1C152.8 95.2 151.5 95.5 150.9 96.1C150.3 96.7 150.1 98 150.1 100.2V121C150.1 123.2 150.4 124.5 150.9 125.1C151.5 125.7 152.8 126 154.8 126.1V127H140.8V126.1C142.8 126 144.1 125.7 144.7 125.1C145.3 124.5 145.5 123.2 145.5 121V96.1V96.1Z" fill="#606060"/>
<path d="M165.8 111.7V121.2C165.8 123.3 166 124.5 166.5 125C167.1 125.7 168 126.1 169.3 126.1H170.6V127H156.6V126.1H157.8C159.2 126.1 160.2 125.7 160.8 124.8C161.1 124.3 161.3 123.1 161.3 121.3V100.2C161.3 98.1 161.1 96.9 160.7 96.4C160.1 95.7 159.1 95.3 157.9 95.3H156.7V94.4H168.7C171.6 94.4 173.9 94.7 175.6 95.3C177.3 95.9 178.7 96.9 179.9 98.3C181.1 99.7 181.6 101.4 181.6 103.4C181.6 106.1 180.7 108.2 179 109.9C177.3 111.6 174.8 112.4 171.5 112.4C170.7 112.4 169.9 112.3 168.9 112.2C167.9 112.1 166.9 112 165.8 111.7ZM165.8 110.4C166.7 110.6 167.4 110.7 168.1 110.8C168.8 110.9 169.3 110.9 169.8 110.9C171.5 110.9 172.9 110.3 174.1 109C175.3 107.7 175.9 106 175.9 104C175.9 102.6 175.6 101.3 175 100.1C174.4 98.9 173.6 98 172.5 97.4C171.4 96.8 170.2 96.5 168.9 96.5C168.1 96.5 167 96.7 165.7 97V110.4H165.8Z" fill="#606060"/>
<path d="M199.4 116.1H186.8L184.6 121.3C184.1 122.6 183.8 123.5 183.8 124.1C183.8 124.6 184 125 184.5 125.4C185 125.8 186 126 187.6 126.1V127H177.3V126.1C178.7 125.9 179.5 125.5 179.9 125.2C180.7 124.4 181.6 122.9 182.6 120.5L194.1 93.6H194.9L206.3 120.8C207.2 123 208 124.4 208.8 125.1C209.5 125.7 210.6 126.1 211.9 126.2V127.1H199V126.2C200.3 126.1 201.2 125.9 201.6 125.5C202.1 125.1 202.3 124.7 202.3 124.2C202.3 123.5 202 122.4 201.3 120.9L199.4 116.1ZM198.7 114.3L193.2 101.1L187.5 114.3H198.7Z" fill="#606060"/>
<path d="M235.2 110.4C237.5 110.9 239.2 111.7 240.3 112.7C241.9 114.2 242.6 116 242.6 118.1C242.6 119.7 242.1 121.3 241.1 122.8C240.1 124.3 238.7 125.4 236.9 126.1C235.1 126.8 232.4 127.1 228.7 127.1H213.3V126.2H214.5C215.9 126.2 216.8 125.8 217.4 124.9C217.8 124.3 218 123.1 218 121.3V100.2C218 98.2 217.8 96.9 217.3 96.4C216.7 95.7 215.7 95.3 214.5 95.3H213.3V94.4H227.4C230 94.4 232.1 94.6 233.7 95C236.1 95.6 237.9 96.6 239.2 98.1C240.5 99.6 241.1 101.3 241.1 103.2C241.1 104.8 240.6 106.3 239.6 107.6C238.6 108.8 237.2 109.7 235.2 110.4ZM222.6 109.1C223.2 109.2 223.9 109.3 224.6 109.4C225.4 109.5 226.2 109.5 227.1 109.5C229.4 109.5 231.2 109.2 232.4 108.7C233.6 108.2 234.5 107.4 235.1 106.4C235.7 105.4 236 104.2 236 103C236 101.1 235.2 99.5 233.7 98.1C232.1 96.8 229.9 96.1 226.9 96.1C225.3 96.1 223.9 96.3 222.6 96.6V109.1V109.1ZM222.6 124.7C224.5 125.1 226.3 125.4 228.1 125.4C231 125.4 233.2 124.7 234.7 123.4C236.2 122.1 237 120.5 237 118.5C237 117.2 236.7 116 236 114.8C235.3 113.6 234.2 112.7 232.6 112C231 111.3 229.1 111 226.8 111C225.8 111 225 111 224.2 111C223.5 111 222.9 111.1 222.5 111.2V124.7H222.6Z" fill="#606060"/>
<path d="M263.4 93.6C267.6 93.6 271.3 95.2 274.4 98.4C277.5 101.6 279.1 105.6 279.1 110.5C279.1 115.5 277.5 119.6 274.4 122.9C271.3 126.2 267.5 127.8 263 127.8C258.5 127.8 254.7 126.2 251.7 123C248.6 119.8 247.1 115.7 247.1 110.6C247.1 105.4 248.9 101.2 252.4 97.9C255.4 95 259.1 93.6 263.4 93.6ZM262.9 95.4C260 95.4 257.6 96.5 255.9 98.7C253.7 101.4 252.6 105.3 252.6 110.5C252.6 115.8 253.7 119.9 256 122.8C257.8 125 260.1 126.1 262.9 126.1C266 126.1 268.5 124.9 270.5 122.5C272.5 120.1 273.5 116.3 273.5 111.2C273.5 105.6 272.4 101.4 270.2 98.7C268.5 96.5 266 95.4 262.9 95.4Z" fill="#606060"/>
<path d="M318.7 99.8C318.7 97.8 318.4 96.6 317.7 96.1C317.1 95.6 315.8 95.3 313.9 95.3V94.4H328V95.3C326 95.4 324.7 95.7 324.1 96.3C323.5 96.9 323.3 98.2 323.3 100.4V121.2C323.3 123.4 323.6 124.7 324.1 125.3C324.7 125.9 326 126.2 328 126.3V127.2H313.9V126.3C316 126.2 317.3 125.9 317.8 125.3C318.4 124.7 318.6 123.4 318.6 121.2V102.5L303.5 121.9C303.5 123.3 303.6 124.2 303.8 124.7C304 125.2 304.4 125.5 305 125.8C305.6 126.1 306.7 126.2 308.3 126.3V127.2H294.2V126.3C296.2 126.2 297.5 125.9 298.1 125.3C298.7 124.7 298.9 123.4 298.9 121.2V100.4C298.9 98.2 298.6 96.9 298.1 96.3C297.5 95.7 296.2 95.4 294.2 95.3V94.4H308.3V95.3C306.3 95.4 305 95.7 304.4 96.3C303.8 96.9 303.6 98.2 303.6 100.4V119.2L318.7 99.8Z" fill="#606060"/>
<path d="M365.5 94.4L365.8 101.5H365C364.5 99.2 363.7 97.7 362.6 97.1C361.5 96.5 359.6 96.2 356.9 96.2H351.4V109.1H352.7C356.7 109.1 359.6 109.4 361.5 109.9C363.4 110.4 364.9 111.4 366.1 112.8C367.3 114.2 367.9 115.9 367.9 118C367.9 120.4 367 122.6 365.2 124.4C363.4 126.2 360.3 127.1 355.9 127.1H342.1V126.2C344.1 126.1 345.4 125.8 346 125.2C346.6 124.6 346.8 123.3 346.8 121.1V100.3C346.8 98.6 346.7 97.5 346.5 97C346.3 96.4 345.9 96 345.4 95.8C344.9 95.6 343.9 95.4 342.5 95.3V94.4H365.5ZM351.4 125.1C352.8 125.3 353.9 125.4 354.7 125.4C356.7 125.4 358.5 124.7 360.1 123.4C361.7 122.1 362.5 120.3 362.5 117.9C362.5 115.5 361.7 113.7 360 112.5C358.3 111.3 356.2 110.8 353.6 110.8C352.9 110.8 352.1 110.9 351.4 111V125.1Z" fill="#606060"/>
<path d="M394.9 99.8C394.9 97.8 394.6 96.6 393.9 96.1C393.3 95.6 392 95.3 390.1 95.3V94.4H404.2V95.3C402.2 95.4 400.9 95.7 400.3 96.3C399.7 96.9 399.5 98.2 399.5 100.4V121.2C399.5 123.4 399.8 124.7 400.3 125.3C400.9 125.9 402.2 126.2 404.2 126.3V127.2H390.1V126.3C392.2 126.2 393.5 125.9 394 125.3C394.6 124.7 394.8 123.4 394.8 121.2V102.5L379.7 121.9C379.7 123.3 379.8 124.2 380 124.7C380.2 125.2 380.6 125.5 381.2 125.8C381.8 126.1 382.9 126.2 384.5 126.3V127.2H370.4V126.3C372.4 126.2 373.7 125.9 374.3 125.3C374.9 124.7 375.1 123.4 375.1 121.2V100.4C375.1 98.2 374.8 96.9 374.3 96.3C373.7 95.7 372.4 95.4 370.4 95.3V94.4H384.5V95.3C382.5 95.4 381.2 95.7 380.6 96.3C380 96.9 379.8 98.2 379.8 100.4V119.2L394.9 99.8Z" fill="#606060"/>
<path d="M407.6 103.2V93.7H408.4C408.7 94.8 409.3 95.3 410.2 95.3C410.6 95.3 411.3 95.1 412.5 94.6C414.3 93.9 416.2 93.6 418.2 93.6C420.9 93.6 423.1 94.4 424.7 96C426.3 97.6 427.2 99.5 427.2 101.7C427.2 103.7 426.6 105.4 425.3 106.8C424.1 108.2 422.4 109.2 420.4 109.9C422.6 110.3 424.4 111.3 425.8 112.9C427.2 114.5 427.8 116.4 427.8 118.6C427.8 121.3 426.8 123.5 424.7 125.2C422.6 126.9 420 127.8 416.9 127.8C412.3 127.8 408.7 125.6 406.2 121.3L407 120.8C407.8 122.1 409 123.3 410.6 124.2C412.2 125.2 413.8 125.6 415.6 125.6C417.7 125.6 419.4 124.9 420.6 123.5C421.8 122.1 422.4 120.3 422.4 118.3C422.4 116.2 421.7 114.4 420.2 112.9C418.7 111.4 416.2 110.7 412.8 110.7V109.1C415.2 109.1 417.1 108.8 418.3 108.3C419.5 107.8 420.5 107 421.3 105.8C422.1 104.6 422.5 103.3 422.5 101.8C422.5 100 422 98.6 420.9 97.5C419.8 96.4 418.4 95.8 416.5 95.8C414.2 95.8 412.4 96.5 411.1 97.8C409.8 99.2 409 100.9 408.6 103.2H407.6Z" fill="#606060"/>
<path d="M440 109.5H455.2V100.2C455.2 98.5 455.1 97.4 454.9 96.9C454.7 96.5 454.4 96.2 453.9 95.9C453.2 95.5 452.5 95.3 451.7 95.3H450.5V94.4H464.5V95.3H463.3C462.5 95.3 461.8 95.5 461.1 95.9C460.6 96.2 460.2 96.5 460.1 97.1C460 97.7 459.8 98.7 459.8 100.3V121.4C459.8 123.1 459.9 124.1 460.1 124.7C460.3 125.1 460.6 125.4 461.1 125.7C461.8 126.1 462.5 126.3 463.3 126.3H464.5V127.2H450.5V126.3H451.7C453 126.3 454 125.9 454.6 125.1C455 124.6 455.2 123.4 455.2 121.4V111.5H440V121.4C440 123.1 440.1 124.1 440.3 124.7C440.5 125.1 440.8 125.4 441.3 125.7C442 126.1 442.7 126.3 443.5 126.3H444.7V127.2H430.7V126.3H431.9C433.2 126.3 434.2 125.9 434.8 125.1C435.2 124.6 435.4 123.4 435.4 121.4V100.3C435.4 98.6 435.3 97.5 435.1 97C434.9 96.6 434.6 96.3 434.1 96C433.4 95.6 432.7 95.4 431.9 95.4H430.7V94.5H444.7V95.4H443.5C442.7 95.4 442 95.6 441.3 96C440.8 96.3 440.5 96.6 440.3 97.2C440.1 97.7 440 98.8 440 100.4V109.5Z" fill="#606060"/>
<path d="M475.8 96.1V109H483C484.9 109 486.1 108.7 486.7 108.2C487.5 107.5 488 106.2 488.1 104.3H489V115.7H488.1C487.9 114.1 487.6 113.1 487.4 112.6C487.1 112 486.6 111.6 486 111.3C485.4 111 484.3 110.8 483 110.8H475.8V121.6C475.8 123 475.9 123.9 476 124.2C476.1 124.5 476.4 124.8 476.7 124.9C477 125 477.6 125.2 478.5 125.2H484C485.8 125.2 487.2 125.1 488 124.8C488.8 124.5 489.6 124 490.4 123.3C491.4 122.3 492.4 120.8 493.5 118.8H494.5L491.7 127H466.5V126.1H467.7C468.5 126.1 469.2 125.9 469.9 125.5C470.4 125.2 470.8 124.9 470.9 124.3C471 123.7 471.2 122.7 471.2 121.1V100C471.2 97.9 471 96.7 470.6 96.2C470 95.6 469.1 95.2 467.7 95.2H466.5V94.3H491.7L492.1 101.5H491.2C490.9 99.8 490.5 98.6 490.1 98C489.7 97.4 489.1 96.9 488.3 96.5C487.7 96.3 486.5 96.1 484.9 96.1H475.8Z" fill="#606060"/>
<path d="M525.3 93.6L526 104.7H525.3C524.3 101.4 522.9 99 521 97.5C519.2 96 516.9 95.3 514.4 95.3C512.2 95.3 510.3 95.9 508.5 96.9C506.7 98 505.4 99.8 504.4 102.2C503.4 104.6 502.9 107.6 502.9 111.2C502.9 114.2 503.4 116.7 504.3 118.9C505.2 121.1 506.7 122.7 508.6 123.9C510.5 125.1 512.7 125.6 515.1 125.6C517.2 125.6 519.1 125.1 520.7 124.2C522.3 123.3 524.1 121.5 526 118.8L526.7 119.3C525.1 122.2 523.2 124.3 521 125.7C518.8 127 516.2 127.7 513.2 127.7C507.8 127.7 503.6 125.7 500.6 121.7C498.4 118.7 497.3 115.2 497.3 111.2C497.3 107.9 498 104.9 499.5 102.2C501 99.5 503 97.4 505.5 95.9C508.1 94.4 510.9 93.6 513.9 93.6C516.3 93.6 518.6 94.2 520.9 95.3C521.6 95.7 522.1 95.8 522.3 95.8C522.7 95.8 523.1 95.6 523.4 95.3C523.8 94.9 524.1 94.3 524.3 93.5H525.3V93.6Z" fill="#606060"/>
<path d="M324.8 147.5L248.1 145.5L120.8 142.2H528.8L412.2 145.3L324.8 147.5Z" fill="#606060"/>
</svg>
