<svg width="290" height="110" viewBox="0 0 290 110" fill="none" xmlns="http://www.w3.org/2000/svg">
<path d="M31.9027 74.618C31.3674 76.9732 29.5474 80.2384 28.691 83.2895C28.1557 84.6277 26.4964 79.7032 26.4964 80.9343C26.4964 81.7907 28.3698 88.91 29.2263 89.3917C32.2774 77.1873 35.1679 80.399 39.5572 73.601C41.9124 70.0146 43.4647 65.3041 44.4818 61.236C41.7518 65.1436 40.8954 69.5328 37.5231 72.4234C37.6837 63.7518 46.5158 60.0584 46.837 51.8686C45.4988 53.4209 44.8029 55.6156 43.6253 57.1144C41.5912 59.8443 39.236 61.8783 37.3625 64.5547C35.2749 67.8199 32.7591 70.871 31.9027 74.618Z" fill="white"/>
<path d="M28.3163 74.7786C28.4769 74.7786 28.4769 74.7786 28.4769 74.618C29.0122 73.7616 29.0122 71.0316 30.3504 68.5158C31.528 66.1606 33.9367 63.7518 35.4355 61.8783C36.7737 60.326 41.3771 53.4209 42.2336 51.708C41.056 52.4039 32.545 60.3796 31.2068 61.8783C28.3163 65.2506 26.8175 70.3358 28.3163 74.7786Z" fill="white"/>
<path d="M40.1995 49.9951C38.0049 50.1557 34.5791 51.3333 32.545 52.1898C30.1898 53.3674 30.1898 54.9197 29.3333 60.6472C30.6715 58.7737 31.6886 55.8832 33.562 54.3844C35.2749 52.7251 38.1654 52.0292 40.1995 49.9951Z" fill="white"/>
<path d="M9.31387 56.6326L11.6691 55.9367L11.1338 52.1898L8.77859 53.3674C8.51095 56.6326 8.29684 54.9197 9.31387 56.6326Z" fill="white"/>
<path d="M42.073 76.2774C40.1995 83.3966 38.326 90.0341 37.6837 91.3723C37.1484 92.5499 34.7932 95.1192 34.3114 98.0097C33.7761 101.382 32.5985 104.647 32.5985 104.647C32.2774 97.3674 34.1508 90.5694 37.3625 84.0925C39.1825 80.8808 41.2165 75.7956 42.073 76.2774Z" fill="white"/>
<path d="M44.9635 71.5669C48.0146 69.2117 50.0487 67.3382 51.9221 63.2701C51.9221 60.219 51.601 54.9732 51.601 52.0827L50.4234 54.2774C49.3528 62.3601 48.3358 64.2336 44.9635 71.5669Z" fill="white"/>
<path d="M22.91 93.9416C22.91 93.0852 23.6058 88.8564 23.4452 88.1606C23.2847 87.4647 11.8832 55.4015 11.8832 55.4015C11.3479 54.7056 16.2725 54.3844 16.4866 54.0633C16.4866 54.0633 11.7226 54.5985 11.562 53.7421L10.0097 48.6569L7.44038 51.3869L8.45742 54.5985L4.22871 56.472C4.22871 56.472 8.83211 55.7762 9.15328 56.1509C9.68856 56.472 19.163 90.2482 19.163 90.2482L22.91 93.9416Z" fill="white"/>
<path d="M21.3577 91.5864V88.2141L12.9002 63.2701C12.9002 63.2701 12.5791 64.983 12.5791 65.3041C12.4185 65.6253 19.8589 89.0706 19.8589 89.0706L21.3577 91.5864Z" fill="white"/>
<path d="M34.2579 108.555C34.2579 108.555 36.1314 104.326 35.9708 103.951C35.8102 103.63 36.9878 98.3309 37.5231 97.8492C37.8443 97.3139 39.236 96.2968 39.236 96.2968C39.236 96.2968 37.3625 101.543 37.3625 104.112C37.1484 106.521 34.2579 108.555 34.2579 108.555Z" fill="white"/>
<path d="M63.4307 21.3577L62.0925 22.0535C62.0925 23.2311 63.1095 22.2141 64.8224 22.2141C65.5182 22.2141 66.5353 23.5523 67.7129 23.5523C69.5864 23.5523 69.2652 23.017 71.0852 22.6959C72.6375 22 73.4404 22.8564 71.0852 21.8394C69.0511 20.8224 70.5499 22.3747 68.3552 20.6618L68.0341 17.0754L68.1946 17.6107L66.8564 19.8054C66 17.236 66.6959 17.236 66.6959 14.5596L64.8224 13.7032C64.983 16.4331 65.6788 19.6448 63.4307 21.3577Z" fill="white"/>
<path d="M64.8224 13.7032L66.1606 14.399L66.6959 14.5596C66.8565 13.5426 68.2482 11.5085 67.2311 10.8127C66.6959 10.6521 65.0365 10.2774 64.6618 9.9562L64.8224 13.7032Z" fill="white"/>
<path d="M42.073 8.08273L42.3942 8.40389L44.2676 8.93917C43.7324 7.06569 45.4453 8.93917 42.9294 6.90511L41.3771 6.58394L42.073 8.08273Z" fill="white"/>
<path d="M30.3504 38.1119C30.3504 38.1119 32.9197 44.7494 37.6302 46.4088L44.0535 46.2482L41.4842 43.3577C38.9148 41.0024 38.9148 42.18 36.399 38.5937L34.5255 36.7202C35.5426 39.9319 38.7543 41.3236 38.7543 44.8564C38.7543 45.5523 35.5426 44.5353 34.8467 42.1265C34.5255 41.5912 33.6691 39.7713 33.2944 38.9148C33.1338 38.3796 32.5985 36.7202 31.5815 35.8637C31.0462 35.3285 30.5645 36.1849 30.2433 35.7032C29.708 35.1679 30.2433 33.5085 30.2433 32.8127C30.0827 32.2774 29.9221 32.8127 29.5474 32.8127C28.8516 37.0949 24.6229 42.3942 24.944 47.1046C24.944 46.944 25.1046 46.5693 25.2652 46.2482C25.9611 44.2676 28.3163 38.9684 30.3504 38.1119Z" fill="white"/>
<path d="M35.8102 36.9343C35.8102 36.9343 38.8613 40.6813 41.4307 41.163C44.3212 41.8589 40.5742 39.6107 40.0925 39.2895C39.8783 38.9684 35.8102 35.4355 35.8102 36.9343Z" fill="white"/>
<path d="M44.9635 40.3601C44.9635 40.3601 44.8029 34.4185 44.4282 34.4185C44.1071 34.4185 38.0049 34.7397 38.0049 34.7397C38.0049 34.7397 39.7178 39.1825 44.9635 40.3601Z" fill="white"/>
<path d="M36.4526 32.545C35.9173 32.3844 39.6642 30.511 43.4112 27.9416C45.9805 26.0681 48.0146 23.7129 48.4964 22.1606C49.0316 20.6083 49.3528 20.8224 50.0487 21.4647C50.0487 21.6253 47.854 25.3723 48.0146 25.6934C48.0146 25.854 49.3528 24.3552 50.3698 23.4988C50.691 23.1776 50.3698 21.9465 50.5304 22.1606C50.691 22.6959 51.5474 24.1946 51.5474 24.1946C51.708 24.1946 54.9197 23.3382 55.455 23.3382C55.6156 23.3382 56.1509 23.3382 56.472 23.3382C56.472 23.3382 55.455 23.6594 54.5985 24.0341C53.7421 24.3552 52.5645 25.0511 52.5645 25.0511C53.5815 25.0511 53.7421 24.5158 53.9027 24.8905C53.9027 25.0511 53.7421 26.9246 52.5645 27.9416C50.5304 29.4939 49.1922 31.3139 49.1922 31.3139C49.1922 31.3139 49.1922 29.7616 49.0316 28.4234C49.0316 27.4063 48.871 26.3893 48.871 26.3893C48.871 26.2287 45.1241 28.9586 42.7689 30.7786C42.2336 31.0998 45.3382 31.3139 44.8029 31.4745C41.9124 32.7056 37.1484 32.545 36.4526 32.545Z" fill="white"/>
<path d="M44.6423 30.1898L46.3552 31.0462L47.0511 35.6496C47.0511 35.6496 48.6034 35.3285 48.6034 34.9538C48.764 33.7762 48.6034 29.1728 47.9075 28.5304C47.1581 28.1022 45.2847 30.1898 44.6423 30.1898Z" fill="white"/>
<path d="M40.5742 24.5693C40.5742 24.5693 40.4136 20.8224 42.1265 19.3236C43.6788 17.9854 43.1436 18.6277 43.1436 18.6277L43.3041 23.7129C43.3041 23.7129 44.3212 23.7129 44.8565 23.5523C45.1776 23.2311 45.7129 24.5693 45.7129 24.5693C45.7129 24.5693 46.2482 22.5353 45.8735 22.3747C44.6959 21.3577 45.5523 19.0024 46.1947 21.8394C46.1947 21.8394 46.1947 21.8394 46.1947 22C46.3552 22.3212 46.0341 24.1946 46.1947 24.0341C46.3552 23.8735 47.0511 23.3382 47.3723 22.1606C47.9075 20.983 48.0681 19.1095 48.0681 18.9489C48.0681 18.4136 46.1946 18.9489 46.0341 18.6277C45.7129 17.2895 46.0341 14.399 46.0341 14.399L44.3212 13.7032C44.3212 13.7032 44.4818 15.4161 43.3041 16.7543C42.1265 17.9319 40.5742 19.3236 40.253 19.3236C39.9319 19.3236 37.6837 17.9854 36.6667 15.5766C35.4355 13.2214 36.4526 10.1703 36.4526 10.1703C36.4526 10.1703 39.3431 7.11922 40.1995 7.11922C41.056 7.2798 42.9294 8.9927 43.7859 10.1703C44.6423 11.1873 44.6423 11.5085 44.8029 11.8832C44.9635 11.8832 45.1241 12.0438 45.6594 12.4185C45.6594 12.5791 45.82 12.5791 45.9805 12.5791L45.82 6.95864C45.82 6.95864 41.9124 7.11922 40.1995 1.87348C40.0389 1.87348 38.8613 4.22871 37.309 5.9416C36.4526 6.63747 34.2579 6.95864 34.2579 7.2798L34.0973 14.2384C34.0973 14.2384 32.7591 16.5937 32.0633 17.2895C31.3674 17.9854 32.7591 19.4842 31.528 21.0365C30.511 22.3747 27.2993 24.944 27.2993 24.944L26.764 32.7591C26.764 32.7591 28.3163 29.5474 30.3504 26.8175C31.3674 25.6399 32.545 24.944 33.4015 24.0876C34.0973 23.3917 36.7737 23.927 36.9878 23.3917C37.8443 21.1971 37.6837 19.6448 37.6837 19.6448L40.5742 24.5693Z" fill="white"/>
<path d="M51.2263 35.2749L55.2944 22.0535V22.3747L51.5474 35.2749H51.2263Z" fill="white"/>
<path d="M55.8297 35.2749H55.6691L55.3479 22.3747V22.0535C55.3479 22.2141 55.3479 22.2141 55.3479 22.2141C55.5085 22.2141 55.5085 22.2141 55.5085 22.2141V22.3747L55.8297 35.2749Z" fill="white"/>
<path d="M60.5937 35.2749H60.2725L55.5085 22.3747V22.2141C55.5085 22.2141 55.6691 22.2141 55.6691 22.3747L60.5937 35.2749Z" fill="white"/>
<path d="M60.7543 35.7567H60.5937C60.5937 35.5961 60.5937 35.5961 60.5937 35.5961C60.4331 35.4355 60.2725 35.2749 59.8978 35.2749C58.7202 35.2749 54.2774 35.2749 54.2774 35.2749C54.2774 35.2749 58.6667 35.5961 59.5231 35.5961C59.6837 35.5961 59.8443 35.5961 60.0584 35.7567H51.2263C51.2263 35.7567 51.2263 35.7567 51.2263 35.5961C51.0657 35.5961 51.0657 35.5961 51.0657 35.4355C51.0657 35.2749 51.0657 35.2749 51.2263 35.2749H51.5475H55.6156H55.7762H60.1655H60.4866H60.6472C60.6472 35.2749 60.8078 35.2749 60.8078 35.4355C60.8078 35.5961 60.8078 35.5961 60.6472 35.5961C60.7543 35.7567 60.7543 35.7567 60.7543 35.7567Z" fill="white"/>
<path d="M84.3066 35.2749H83.9854L80.2384 22.3747V22.0535L84.3066 35.2749Z" fill="white"/>
<path d="M79.9173 35.2749H79.7567L80.0779 22.3747V22.2141H80.2384C80.2384 22.2141 80.2384 22.2141 80.2384 22.0535V22.3747L79.9173 35.2749Z" fill="white"/>
<path d="M75.3139 35.2749H75.1533L79.9173 22.3747C79.9173 22.2141 80.0779 22.2141 80.0779 22.2141V22.3747L75.3139 35.2749Z" fill="white"/>
<path d="M76.3309 23.2311C75.635 23.2311 75.1533 23.0706 74.2968 22.91C72.4234 22.3747 70.3893 21.8929 68.8905 21.7324C68.7299 21.4112 68.7299 21.0365 68.7299 20.7153C70.2822 20.7153 72.1022 21.7324 74.6715 22.2676C75.528 22.4282 76.2238 22.5888 76.8662 22.5888C77.7226 22.5888 78.4185 22.4282 78.9002 22.2676C78.9002 22.4282 78.9002 22.5888 79.0608 22.5888H79.2214C78.365 22.8564 77.5085 23.2311 76.3309 23.2311Z" fill="white"/>
<path d="M75.4745 23.5523C77.6691 23.5523 79.5426 22.5353 80.2384 22.2141C80.2384 22.2141 80.2384 22.2141 80.2384 22.0535C80.2384 22.2141 80.2384 22.2141 80.2384 22.2141H80.0779C80.0779 22.2141 79.9173 22.2141 79.9173 22.3747C79.0608 22.8564 77.5085 23.5523 75.4745 23.5523ZM76.3309 23.2311C75.635 23.2311 75.1533 23.0706 74.2968 22.91C72.4234 22.3747 70.3893 21.8929 68.8905 21.7324C70.4428 21.8929 72.4769 22.4282 74.2968 22.91C75.1533 23.017 75.6886 23.2311 76.3309 23.2311Z" fill="white"/>
<path d="M76.8662 22.5353C77.7226 22.5353 78.4185 22.3747 78.9002 22.2141C78.365 22.3747 77.7226 22.5353 76.8662 22.5353ZM77.0268 22.2141C76.0097 22.2141 74.6715 22.0535 73.1192 21.3577C70.9246 20.5012 69.5328 20.18 68.7299 20.18C69.5864 20.18 70.9246 20.5012 73.1192 21.3577C74.6715 22 76.0097 22.2141 77.0268 22.2141Z" fill="white"/>
<path d="M79.0608 22.5353C78.9002 22.5353 78.9002 22.3747 78.9002 22.2141V22.0535C78.9002 22 78.7397 22.3747 79.0608 22.5353C79.0608 22.3747 79.0608 22.3747 79.0608 22.3747C79.0608 22.3747 79.5961 20.8224 80.2384 20.8224C80.2384 20.8224 80.399 20.983 80.5596 21.1436C80.7202 21.1436 80.7202 21.1436 80.7202 21.3041C80.7202 21.1436 80.5596 20.983 80.5596 20.7689C80.8808 21.3041 80.7202 21.6253 80.2384 21.9465C79.9173 22.2676 79.5426 22.4818 79.5426 22.4818C79.382 22.4818 79.2214 22.4818 79.2214 22.4818H79.0608V22.5353ZM78.9002 22C79.0608 21.6788 79.4355 20.4477 80.0779 20.4477C79.382 20.5012 78.9002 22 78.9002 22Z" fill="white"/>
<path d="M79.0608 22.5353C78.7397 22.3747 78.9002 22 78.9002 22C78.9002 22 79.4355 20.4477 80.0779 20.4477C79.382 20.4477 78.9002 22 78.9002 22C78.9002 22 78.7397 22.3747 79.0608 22.5353ZM80.7737 21.3577C80.7737 21.1971 80.7737 21.1971 80.6131 21.1971C80.4526 21.0365 80.292 20.8759 80.292 20.8759C80.292 20.8759 80.4526 21.0365 80.6131 21.1971C80.7737 21.1971 80.7737 21.1971 80.7737 21.3577Z" fill="white"/>
<path d="M80.6131 20.8224C80.4526 20.6618 80.292 20.5012 80.0779 20.5012C80.2384 20.5012 80.399 20.6618 80.6131 20.8224Z" fill="white"/>
<path d="M66.1606 21.6788C66.3212 21.3577 66.3212 20.983 66.3212 20.6618C66.4818 20.6618 66.6423 20.6618 66.8564 20.6618C66.8564 20.983 66.8564 21.3577 66.8564 21.6788C66.6959 21.6788 66.4817 21.6788 66.1606 21.6788Z" fill="white"/>
<path d="M67.017 22C67.017 22 67.017 22.1606 67.1776 21.6788C67.1776 21.3577 67.1776 20.983 67.1776 20.6618C67.1776 20.5012 67.1776 20.3406 67.1776 20.1265C67.3382 19.5912 67.3382 19.2701 67.3382 19.1095H68.1947C68.1947 19.2701 68.3552 19.6448 68.3552 20.1265C68.3552 20.2871 68.3552 20.4477 68.3552 20.6618C68.3552 20.983 68.5158 21.3577 68.5158 21.6788C68.5158 22 68.5158 21.8394 68.5158 22.2141C69.9076 22.3747 67.4988 20.5012 67.017 22ZM68.7299 18.9489H66.8564C67.017 18.9489 67.017 18.7883 67.017 18.7883H68.5694C68.5694 18.7883 68.5694 18.7883 68.5694 18.6277H68.7299C68.7299 18.6277 68.7299 18.6277 68.5694 18.6277H67.017V18.7883L68.7299 18.9489ZM67.017 18.7883C67.017 18.6277 66.8564 18.6277 67.017 18.6277C67.017 18.4672 67.5523 18.3066 67.5523 18.3066H68.0876C68.0876 18.3066 68.6229 18.4672 68.6229 18.6277C68.7835 18.6277 68.7835 18.6277 68.7835 18.6277H68.5158C68.5158 18.7883 68.5158 18.7883 68.5158 18.7883L68.6764 18.9489L67.017 18.7883ZM67.4988 18.3066V17.9854C67.4988 17.9854 66.8029 17.8248 66.8029 17.2895C66.8029 16.5937 67.3382 15.5766 67.82 15.4161C68.1411 15.5766 68.6764 16.5937 68.6764 17.2895C68.6764 17.8248 67.9805 17.9854 67.9805 17.9854H67.4453V18.3066H67.4988Z" fill="white"/>
<path d="M68.3552 18.3066H67.3382V17.9319H68.3552H67.3382V18.3066H68.3552Z" fill="white"/>
<path d="M68.3552 18.3066H67.3382V17.9319H68.3552V18.3066Z" fill="white"/>
<path d="M68.8905 18.7883H66.6959V18.6277V18.7883H68.8905L69.0511 18.6277L68.8905 18.7883Z" fill="white"/>
<path d="M68.8905 18.7883H66.6959V18.6277H68.8905C68.8905 18.6277 68.8905 18.6277 69.0511 18.6277L68.8905 18.7883Z" fill="white"/>
<path d="M68.5158 19.163H68.6764C68.6764 19.163 68.9976 19.163 68.9976 19.0024H66.6423H68.9976C68.9976 19.163 68.6764 19.163 68.6764 19.163H68.5158Z" fill="white"/>
<path d="M68.5158 19.163H66.9635H66.8029C66.8029 19.163 66.6423 19.163 66.6423 19.0024H68.9976C68.9976 19.163 68.6764 19.163 68.6764 19.163H68.5158Z" fill="white"/>
<path d="M67.8735 22.3747C65.3041 22.3747 63.9659 22.6959 62.7883 23.0706C61.9319 23.2311 61.236 23.3917 60.4331 23.3917C57.0608 23.7129 54.8127 22.0535 54.8127 22.0535H54.6521L54.8127 21.8929C54.8127 21.7324 54.8127 21.3577 54.9732 21.0365C55.1338 20.8759 55.2944 20.8759 55.5085 20.8759C55.6691 20.8759 55.8297 20.8759 56.0438 21.0365C56.2044 21.1971 56.365 21.3577 56.365 21.5718C56.5256 21.7324 56.5255 21.8929 56.6861 22.1071C56.6861 22.2676 56.6861 22.2676 56.8467 22.2676L57.0073 22.4282C57.8637 22.4282 59.0414 22.5888 60.219 22.4282C61.3966 22.1071 62.5742 21.7324 63.5912 21.4112C63.9124 21.2506 64.2871 21.09 64.6083 20.8759C66.9635 20.18 68.5158 20.18 71.0316 20.8759C71.1922 21.0365 71.5669 21.1971 72.0487 21.4112C72.9051 21.7324 74.0827 22.1071 75.4209 22.4282C76.438 22.5888 77.6156 22.4282 78.6326 22.4282L78.7932 22.2676C78.7932 22.2676 78.9538 22.2676 78.9538 22.1071C78.9538 21.9465 79.1144 21.7859 79.1144 21.5718C79.2749 21.4112 79.2749 21.2506 79.4355 21.0365C79.5961 20.8759 79.7567 20.8759 79.9708 20.8759C80.292 20.8759 80.5061 20.8759 80.5061 21.0365C80.6667 21.3577 80.8272 21.7324 80.8272 21.8929V22.0535C80.8272 22.0535 78.472 23.7664 75.2068 23.3917C74.3504 23.3917 73.4939 23.2311 72.8516 23.0706C71.6204 22.6959 70.2287 22.3747 67.8735 22.3747Z" fill="white"/>
<path d="M67.3382 17.9319H68.3552V18.253C68.3552 18.253 68.8905 18.4136 68.8905 18.5742C69.0511 18.5742 68.8905 18.7348 68.8905 18.7348C68.8905 18.7348 68.8905 18.7348 69.0511 18.8954C69.0511 19.056 68.8905 19.056 68.5158 19.056C68.3552 19.2165 66.9635 19.056 66.9635 19.056C66.9635 19.056 66.6423 19.056 66.6423 18.8954C66.6423 18.7348 66.8029 18.7348 66.8029 18.7348C66.8029 18.7348 66.6423 18.7348 66.6423 18.5742C66.6423 18.5742 66.6423 18.4136 67.3382 18.253V17.9319Z" fill="white"/>
<path d="M79.5961 37.7908C77.7226 37.7908 76.7056 37.2555 76.0097 36.9343C76.7056 37.309 77.7226 37.7908 79.5961 37.7908C81.9513 37.7908 82.9684 36.9343 83.3431 36.4526C82.9684 36.9343 81.9513 37.7908 79.5961 37.7908Z" fill="white"/>
<path d="M79.5961 37.7908C77.7226 37.7908 76.7056 37.2555 76.0097 36.9343C75.8492 36.7737 75.8492 36.6131 75.6886 36.399C75.6886 36.399 75.6886 36.399 75.8492 36.399H83.2895C82.9684 36.9343 81.9513 37.7908 79.5961 37.7908ZM76.3309 36.6131C76.3309 36.7737 76.4915 37.309 77.6691 37.4696C78.2044 37.6302 78.6861 37.6302 79.0073 37.6302C79.5426 37.6302 79.8637 37.6302 79.8637 37.6302C79.8637 37.6302 79.1679 37.0949 78.5256 36.9343C78.0438 36.7737 76.3309 36.6131 76.3309 36.6131Z" fill="white"/>
<path d="M83.4501 36.4526H83.2895H75.8492C75.6886 36.4526 75.6886 36.4526 75.6886 36.4526C75.1533 36.4526 74.8321 36.1314 74.8321 35.5961C74.8321 36.1314 75.3674 36.4526 75.8492 36.4526H83.4501C83.7713 36.4526 84.146 36.292 84.3066 36.1314C84.146 36.292 83.8248 36.4526 83.4501 36.4526Z" fill="white"/>
<path d="M83.4501 36.4526H75.7956C75.2603 36.4526 74.7786 36.1314 74.7786 35.5961C74.7786 35.7567 74.7786 35.9173 74.7786 35.9173H75.0997C75.0997 36.0779 75.0997 36.0779 75.0997 36.0779C75.0997 36.0779 75.0997 36.0779 75.2603 35.9173H84.253C84.253 35.9173 84.253 35.7567 84.253 35.5961C84.253 35.7567 84.253 35.9173 84.253 36.1314C84.146 36.292 83.8248 36.4526 83.4501 36.4526Z" fill="white"/>
<path d="M84.3066 35.9173H75.3139C75.3139 35.9173 75.3139 35.7567 75.4745 35.7567H84.3066C84.3066 35.7567 84.3066 35.7567 84.3066 35.5961C84.3066 35.7567 84.3066 35.9173 84.3066 35.9173ZM75.1533 35.9173H74.8321C74.8321 35.9173 74.8321 35.7567 74.8321 35.5961C74.8321 35.7567 74.8321 35.7567 74.8321 35.7567H74.9927C74.9927 35.7567 74.9927 35.9173 75.1533 35.9173Z" fill="white"/>
<path d="M84.3066 35.7567H75.4745C75.635 35.5961 75.7956 35.5961 76.0097 35.5961C77.0268 35.5961 81.2555 35.2749 81.2555 35.2749C81.2555 35.2749 76.8662 35.2749 75.635 35.2749C75.0998 35.2749 74.9392 35.5961 74.9392 35.8102H74.7786C74.7786 35.8102 74.7786 35.8102 74.7786 35.6496C74.618 35.6496 74.618 35.6496 74.618 35.4891C74.618 35.3285 74.7786 35.3285 74.7786 35.3285H75.0998H75.2604H79.6496H79.8102H83.8783H84.1995C84.3601 35.3285 84.3601 35.3285 84.3601 35.4891C84.3601 35.6496 84.3601 35.6496 84.1995 35.6496C84.3066 35.7567 84.3066 35.7567 84.3066 35.7567Z" fill="white"/>
<path d="M79.0608 37.6302C78.7397 37.6302 78.2044 37.6302 77.7226 37.4696C76.545 37.309 76.3844 36.7737 76.3844 36.6131C76.3844 36.7737 76.545 37.309 77.7226 37.4696C78.2044 37.6302 78.7397 37.6302 79.0608 37.6302C79.5961 37.6302 79.9173 37.6302 79.9173 37.6302C79.9173 37.6302 79.5961 37.6302 79.0608 37.6302Z" fill="white"/>
<path d="M79.0608 37.6302C78.7397 37.6302 78.2044 37.6302 77.7226 37.4696C76.545 37.309 76.3844 36.7737 76.3844 36.6131C76.3844 36.6131 78.0973 36.7737 78.5791 36.9343C79.2749 37.0949 79.9173 37.6302 79.9173 37.6302C79.9173 37.6302 79.5961 37.6302 79.0608 37.6302Z" fill="white"/>
<path d="M75.1533 36.0779C75.1533 36.0779 75.1533 36.0779 75.3139 35.9173C75.1533 36.0779 75.1533 36.0779 75.1533 36.0779Z" fill="white"/>
<path d="M75.3139 35.9173C75.3139 35.9173 75.3139 35.7567 75.4745 35.7567C75.3139 35.7567 75.3139 35.9173 75.3139 35.9173Z" fill="white"/>
<path d="M75.4745 35.7567C75.635 35.5961 75.7956 35.5961 76.0097 35.5961C76.8662 35.5961 81.0949 35.4355 81.2555 35.2749H75.635C76.8127 35.2749 81.2555 35.2749 81.2555 35.2749C81.2555 35.2749 77.0268 35.5961 76.0097 35.5961C75.8492 35.5961 75.6886 35.5961 75.4745 35.7567Z" fill="white"/>
<path d="M75.1533 36.0779C75.1533 36.0779 75.1533 36.0779 75.1533 35.9173H75.3139C75.1533 36.0779 75.1533 36.0779 75.1533 36.0779Z" fill="white"/>
<path d="M75.3139 35.9173H75.1533C74.9927 35.9173 74.9927 35.7567 74.9927 35.7567H75.528C75.3139 35.7567 75.3139 35.9173 75.3139 35.9173Z" fill="white"/>
<path d="M75.4744 35.7567H74.9392C74.9392 35.5961 75.0997 35.2214 75.635 35.2214H81.2555C81.0949 35.382 76.8662 35.5426 76.0097 35.5426C75.8491 35.5961 75.6886 35.5961 75.4744 35.7567Z" fill="white"/>
<path d="M84.4672 35.5961H84.3066C84.3066 35.7567 84.146 36.6131 83.4501 36.4526C83.4501 36.4526 83.129 36.7737 82.7543 36.9878C82.5937 37.1484 82.4331 37.309 82.219 37.309C81.5231 37.6302 80.3455 37.8443 79.3285 37.8443C78.6326 37.8443 77.6156 37.6837 76.9732 37.5231C76.6521 37.3625 76.2774 37.2019 76.1168 36.9878C75.7956 36.8272 75.7956 36.6667 75.5815 36.4526C75.5815 36.4526 75.5815 36.4526 75.4209 36.4526H75.2603C75.0998 36.4526 75.0998 36.292 75.0998 36.292C74.7786 35.9708 74.5645 35.5961 74.5645 35.4355C74.5645 35.4355 74.7251 35.2749 74.8856 35.2749C76.0633 35.2749 80.1314 35.2749 82.7007 35.4355C83.8248 35.4355 84.4672 35.5961 84.4672 35.5961Z" fill="white"/>
<path d="M55.9903 37.7908C54.1168 37.7908 52.9392 37.2555 52.4039 36.9343C52.9392 37.309 54.1168 37.7908 55.9903 37.7908C58.3455 37.7908 59.3625 36.9343 59.7372 36.4526C59.3625 36.9343 58.3455 37.7908 55.9903 37.7908Z" fill="white"/>
<path d="M55.9903 37.7908C54.1168 37.7908 52.9392 37.2555 52.4039 36.9343C52.2433 36.7737 52.0827 36.6131 52.0827 36.399H59.7372C59.3625 36.9343 58.3455 37.7908 55.9903 37.7908ZM52.618 36.6131C52.7786 36.7737 52.9392 37.309 53.9562 37.4696C54.4915 37.6302 54.9732 37.6302 55.2944 37.6302C55.9903 37.6302 56.3114 37.6302 56.3114 37.6302C56.3114 37.6302 55.455 37.0949 54.9732 36.9343C54.438 36.7737 52.7786 36.6131 52.618 36.6131Z" fill="white"/>
<path d="M59.7372 36.4526H52.0827C51.5475 36.4526 51.2263 36.1314 51.0657 35.5961C51.2263 36.1314 51.601 36.4526 52.0827 36.4526H59.7372C60.0584 36.4526 60.4331 36.292 60.5937 36.1314C60.3796 36.292 60.0584 36.4526 59.7372 36.4526Z" fill="white"/>
<path d="M59.7372 36.4526H52.0827C51.5475 36.4526 51.2263 36.1314 51.0657 35.5961C51.0657 35.7567 51.2263 35.9173 51.2263 35.9173H51.3869C51.5475 36.0779 51.5475 36.0779 51.5475 36.0779C51.5475 36.0779 51.5475 36.0779 51.5475 35.9173H60.5402H60.7007C60.7007 35.9173 60.7007 35.7567 60.7007 35.5961C60.7007 35.7567 60.7007 35.9173 60.5402 36.1314C60.3796 36.292 60.0584 36.4526 59.7372 36.4526Z" fill="white"/>
<path d="M51.2263 35.9173C51.2263 35.9173 51.0657 35.7567 51.0657 35.5961C51.0657 35.7567 51.2263 35.9173 51.2263 35.9173Z" fill="white"/>
<path d="M60.5937 35.9173H51.601C51.601 35.9173 51.7616 35.7567 51.9222 35.7567H60.5937C60.7543 35.7567 60.7543 35.7567 60.7543 35.5961C60.7543 35.7567 60.7543 35.9173 60.7543 35.9173H60.5937ZM51.3869 35.9173H51.2263C51.2263 35.9173 51.0657 35.7567 51.0657 35.5961C51.2263 35.7567 51.2263 35.7567 51.2263 35.7567H51.3869V35.9173Z" fill="white"/>
<path d="M60.5937 35.7567H51.9221C52.0827 35.5961 52.2433 35.5961 52.4574 35.5961C53.3139 35.5961 57.5426 35.2749 57.5426 35.2749C57.5426 35.2749 53.3139 35.2749 52.1362 35.2749C51.601 35.2749 51.4404 35.5961 51.4404 35.8102H51.2798C51.2798 35.8102 51.2798 35.8102 51.1192 35.6496C51.1192 35.6496 51.1192 35.6496 51.1192 35.4891C51.1192 35.3285 51.1192 35.3285 51.2798 35.3285H51.3869H51.708H55.9367H56.2579H60.326H60.4866C60.4866 35.3285 60.4866 35.3285 60.6472 35.3285C60.6472 35.3285 60.8078 35.3285 60.8078 35.4891C60.8078 35.6496 60.8078 35.6496 60.6472 35.6496C60.7543 35.7567 60.7542 35.7567 60.5937 35.7567Z" fill="white"/>
<path d="M55.2944 37.6302C54.9732 37.6302 54.438 37.6302 53.9562 37.4696C52.9392 37.309 52.7786 36.7737 52.618 36.6131C52.7786 36.7737 52.9392 37.309 53.9562 37.4696C54.438 37.6302 54.9732 37.6302 55.2944 37.6302C55.9903 37.6302 56.3114 37.6302 56.3114 37.6302C56.3114 37.6302 55.9903 37.6302 55.2944 37.6302Z" fill="white"/>
<path d="M55.2944 37.6302C54.9732 37.6302 54.438 37.6302 53.9562 37.4696C52.9392 37.309 52.7786 36.7737 52.618 36.6131C52.7786 36.6131 54.4915 36.7737 54.9732 36.9343C55.5085 37.0949 56.3114 37.6302 56.3114 37.6302C56.3114 37.6302 55.9903 37.6302 55.2944 37.6302Z" fill="white"/>
<path d="M51.601 35.9173C51.601 35.9173 51.7616 35.7567 51.9221 35.7567C51.7616 35.7567 51.601 35.9173 51.601 35.9173Z" fill="white"/>
<path d="M51.9221 35.7567C52.0827 35.5961 52.2433 35.5961 52.4574 35.5961C53.3139 35.5961 57.382 35.4355 57.5426 35.2749H52.0827C53.2604 35.2749 57.4891 35.2749 57.4891 35.2749C57.4891 35.2749 53.2603 35.5961 52.4039 35.5961C52.2433 35.5961 52.0827 35.5961 51.9221 35.7567Z" fill="white"/>
<path d="M51.601 36.0779C51.601 36.0779 51.601 36.0779 51.4404 35.9173H51.601C51.601 36.0779 51.601 36.0779 51.601 36.0779Z" fill="white"/>
<path d="M51.601 35.9173H51.3869V35.7567H51.9221C51.7616 35.7567 51.601 35.9173 51.601 35.9173Z" fill="white"/>
<path d="M51.9221 35.7567H51.3869C51.3869 35.5961 51.5474 35.2214 52.0827 35.2214H57.4891C57.3285 35.382 53.2603 35.5426 52.4039 35.5426C52.2433 35.5961 52.0827 35.5961 51.9221 35.7567Z" fill="white"/>
<path d="M60.9148 35.5961H60.7543C60.7543 35.7567 60.4331 36.6131 59.7372 36.4526C59.7372 36.4526 59.5766 36.7737 59.2019 36.9878C59.0414 37.1484 58.8808 37.309 58.5061 37.309C57.8102 37.6302 56.7932 37.8443 55.7761 37.8443C54.9197 37.8443 53.9027 37.6837 53.4209 37.5231C52.8856 37.3625 52.5645 37.2019 52.4039 36.9878C52.2433 36.8272 52.0827 36.6667 52.0827 36.4526H51.9221C51.7616 36.4526 51.7616 36.4526 51.7616 36.4526C51.601 36.4526 51.601 36.292 51.4404 36.292C51.1192 35.9708 51.1192 35.5961 51.1192 35.4355C51.1192 35.4355 51.2798 35.2749 51.4404 35.2749C52.4574 35.2749 56.6861 35.2749 59.0949 35.4355C60.219 35.4355 60.9148 35.5961 60.9148 35.5961Z" fill="white"/>
<path d="M39.8784 13.0073C40.4136 14.5596 39.5572 15.5766 39.5572 15.5766C39.5572 15.5766 39.5572 13.8637 39.236 13.0073H39.8784Z" fill="white"/>
<path d="M44.2676 44.2676C44.2676 44.2676 47.854 40.8954 48.1752 38.4866C48.4964 35.5961 46.6229 39.3431 46.3017 39.8248C46.1411 40.1995 42.9294 44.5888 44.2676 44.2676Z" fill="white"/>
<path d="M34.9538 13.8637C34.9538 13.8637 37.6837 12.5255 40.7348 12.5255C43.9465 12.5255 45.6594 13.8637 45.6594 13.8637L45.3382 12.5255C45.3382 12.5255 43.4647 10.6521 40.0924 10.9732C36.8808 11.1338 35.3285 12.5255 35.3285 12.5255L34.9538 13.8637Z" fill="white"/>
<path d="M36.4526 11.8297C36.4526 11.8297 35.1144 12.365 34.2579 12.8467C33.4015 13.382 34.0973 11.9903 34.0973 11.9903L36.4526 10.9732C36.4526 10.9732 36.4526 11.5085 36.4526 11.8297Z" fill="white"/>
<path d="M36.1314 14.0243C36.1314 14.0243 34.4185 14.3455 33.7762 14.8808C32.9197 15.4161 33.7762 14.1849 33.7762 14.1849L36.1314 13.3285C36.1314 13.382 36.1314 13.7032 36.1314 14.0243Z" fill="white"/>
<path d="M77.8832 51.4404H69.8005V64.7689C69.8005 65.9465 69.9611 66.6423 70.2287 66.9635C70.4964 67.2847 71.2457 67.4453 72.3163 67.4988V67.9805H64.7689V67.4988C65.8394 67.4453 66.5353 67.2847 66.8565 66.9635C67.1776 66.6423 67.2847 65.9465 67.2847 64.7689V53.635C67.2847 52.4574 67.1241 51.7616 66.8565 51.4404C66.5353 51.1192 65.8394 50.9586 64.7689 50.9051V50.4234H82.8613V50.9051C81.7908 50.9586 81.0949 51.1192 80.7737 51.4404C80.4526 51.7616 80.3455 52.4574 80.3455 53.635V64.7689C80.3455 65.9465 80.5061 66.6423 80.7737 66.9635C81.0949 67.2847 81.7908 67.4453 82.8613 67.4988V67.9805H75.3674V67.4988C76.438 67.4453 77.1338 67.2847 77.455 66.9635C77.7762 66.6423 77.8832 65.9465 77.8832 64.7689V51.4404V51.4404Z" fill="white"/>
<path d="M88.7494 59.7908V64.8759C88.7494 66 88.8565 66.6423 89.1241 66.91C89.4453 67.2847 89.927 67.4988 90.6229 67.4988H91.3187V67.9805H83.8248V67.4988H84.4672C85.2166 67.4988 85.7518 67.2847 86.073 66.8029C86.2336 66.5353 86.3406 65.8929 86.3406 64.9294V53.635C86.3406 52.5109 86.2336 51.8686 86.0195 51.601C85.6983 51.2263 85.163 51.0122 84.5207 51.0122H83.8784V50.5304H90.3017C91.854 50.5304 93.0852 50.691 93.9951 51.0122C94.9051 51.3333 95.6545 51.8686 96.2968 52.618C96.9392 53.3674 97.2068 54.2774 97.2068 55.3479C97.2068 56.7932 96.7251 57.9173 95.8151 58.8273C94.9051 59.7372 93.5669 60.1655 91.8005 60.1655C91.3723 60.1655 90.944 60.1119 90.4088 60.0584C89.8735 60.0049 89.3382 59.9513 88.7494 59.7908ZM88.7494 59.0949C89.2312 59.2019 89.6058 59.2555 89.9805 59.309C90.3552 59.3625 90.6229 59.3625 90.8905 59.3625C91.8005 59.3625 92.5499 59.0414 93.1922 58.3455C93.8346 57.6496 94.1557 56.7397 94.1557 55.6691C94.1557 54.9197 93.9951 54.2238 93.674 53.5815C93.3528 52.9392 92.9246 52.4574 92.3358 52.1363C91.747 51.8151 91.1046 51.6545 90.4088 51.6545C89.9805 51.6545 89.3917 51.7616 88.6959 51.9221V59.0949H88.7494Z" fill="white"/>
<path d="M106.735 62.146H99.9903L98.8127 64.9294C98.545 65.6253 98.3844 66.1071 98.3844 66.4282C98.3844 66.6959 98.4915 66.91 98.7591 67.1241C99.0268 67.3382 99.5621 67.4453 100.419 67.4988V67.9805H94.9051V67.4988C95.6545 67.3917 96.0827 67.1776 96.2968 67.017C96.7251 66.5888 97.2068 65.7859 97.7421 64.5012L103.898 50.1022H104.326L110.428 64.6618C110.91 65.8394 111.338 66.5888 111.766 66.9635C112.141 67.2847 112.73 67.4988 113.426 67.5523V68.0341H106.521V67.5523C107.217 67.4988 107.698 67.3917 107.912 67.1776C108.18 66.9635 108.287 66.7494 108.287 66.4818C108.287 66.1071 108.127 65.5183 107.752 64.7153L106.735 62.146ZM106.36 61.1825L103.416 54.1168L100.365 61.1825H106.36Z" fill="white"/>
<path d="M125.898 59.0949C127.129 59.3625 128.039 59.7908 128.628 60.326C129.484 61.129 129.859 62.0925 129.859 63.2165C129.859 64.073 129.591 64.9294 129.056 65.7324C128.521 66.5353 127.771 67.1241 126.808 67.4988C125.844 67.8735 124.399 68.0341 122.419 68.0341H114.175V67.5523H114.818C115.567 67.5523 116.049 67.3382 116.37 66.8565C116.584 66.5353 116.691 65.8929 116.691 64.9294V53.635C116.691 52.5645 116.584 51.8686 116.316 51.601C115.995 51.2263 115.46 51.0122 114.818 51.0122H114.175V50.5304H121.723C123.114 50.5304 124.238 50.6375 125.095 50.8516C126.38 51.1727 127.343 51.708 128.039 52.5109C128.735 53.3139 129.056 54.2238 129.056 55.2409C129.056 56.0973 128.788 56.9002 128.253 57.5961C127.718 58.2384 126.968 58.7202 125.898 59.0949ZM119.153 58.399C119.474 58.4526 119.849 58.5061 120.224 58.5596C120.652 58.6131 121.08 58.6131 121.562 58.6131C122.793 58.6131 123.757 58.4526 124.399 58.1849C125.041 57.9173 125.523 57.4891 125.844 56.9538C126.165 56.4185 126.326 55.7762 126.326 55.1338C126.326 54.1168 125.898 53.2603 125.095 52.5109C124.238 51.8151 123.061 51.4404 121.455 51.4404C120.599 51.4404 119.849 51.5474 119.153 51.708V58.399V58.399ZM119.153 66.7494C120.17 66.9635 121.134 67.1241 122.097 67.1241C123.65 67.1241 124.827 66.7494 125.63 66.0535C126.433 65.3577 126.861 64.5012 126.861 63.4307C126.861 62.7348 126.701 62.0925 126.326 61.4501C125.951 60.8078 125.363 60.326 124.506 59.9513C123.65 59.5766 122.633 59.4161 121.401 59.4161C120.866 59.4161 120.438 59.4161 120.01 59.4161C119.635 59.4161 119.314 59.4696 119.1 59.5231V66.7494H119.153Z" fill="white"/>
<path d="M140.993 50.1022C143.241 50.1022 145.221 50.9586 146.881 52.6715C148.54 54.3844 149.397 56.5255 149.397 59.1484C149.397 61.8248 148.54 64.0195 146.881 65.7859C145.221 67.5523 143.187 68.4088 140.779 68.4088C138.37 68.4088 136.336 67.5523 134.73 65.8394C133.071 64.1265 132.268 61.9319 132.268 59.2019C132.268 56.4185 133.231 54.1703 135.105 52.4039C136.71 50.8516 138.691 50.1022 140.993 50.1022ZM140.725 51.0657C139.173 51.0657 137.888 51.6545 136.978 52.8321C135.8 54.2774 135.212 56.365 135.212 59.1484C135.212 61.9854 135.8 64.18 137.032 65.7324C137.995 66.91 139.226 67.4988 140.725 67.4988C142.384 67.4988 143.723 66.8564 144.793 65.5718C145.864 64.2871 146.399 62.253 146.399 59.5231C146.399 56.5255 145.81 54.2774 144.633 52.8321C143.723 51.6545 142.384 51.0657 140.725 51.0657Z" fill="white"/>
<path d="M170.594 53.4209C170.594 52.3504 170.433 51.708 170.058 51.4404C169.737 51.1727 169.041 51.0122 168.024 51.0122V50.5304H175.572V51.0122C174.501 51.0657 173.805 51.2263 173.484 51.5474C173.163 51.8686 173.056 52.5645 173.056 53.7421V64.8759C173.056 66.0535 173.217 66.7494 173.484 67.0706C173.805 67.3917 174.501 67.5523 175.572 67.6058V68.0876H168.024V67.6058C169.148 67.5523 169.844 67.3917 170.112 67.0706C170.433 66.7494 170.54 66.0535 170.54 64.8759V54.8662L162.457 65.2506C162.457 66 162.511 66.4817 162.618 66.7494C162.725 67.017 162.939 67.1776 163.26 67.3382C163.581 67.4988 164.17 67.5523 165.027 67.6058V68.0876H157.479V67.6058C158.55 67.5523 159.246 67.3917 159.567 67.0706C159.888 66.7494 159.995 66.0535 159.995 64.8759V53.7421C159.995 52.5645 159.835 51.8686 159.567 51.5474C159.246 51.2263 158.55 51.0657 157.479 51.0122V50.5304H165.027V51.0122C163.956 51.0657 163.26 51.2263 162.939 51.5474C162.618 51.8686 162.511 52.5645 162.511 53.7421V63.8053L170.594 53.4209Z" fill="white"/>
<path d="M195.645 50.5304L195.805 54.3309H195.377C195.109 53.0998 194.681 52.2968 194.092 51.9757C193.504 51.6545 192.487 51.4939 191.041 51.4939H188.097V58.399H188.793C190.934 58.399 192.487 58.5596 193.504 58.8273C194.521 59.0949 195.324 59.6302 195.966 60.3796C196.608 61.129 196.929 62.0389 196.929 63.163C196.929 64.4477 196.448 65.6253 195.484 66.5888C194.521 67.5523 192.861 68.0341 190.506 68.0341H183.119V67.5523C184.19 67.4988 184.886 67.3382 185.207 67.017C185.528 66.6959 185.635 66 185.635 64.8224V53.6886C185.635 52.7786 185.582 52.1898 185.474 51.9221C185.367 51.601 185.153 51.3869 184.886 51.2798C184.618 51.1728 184.083 51.0657 183.333 51.0122V50.5304H195.645ZM188.097 66.9635C188.847 67.0706 189.436 67.1241 189.864 67.1241C190.934 67.1241 191.898 66.7494 192.754 66.0535C193.611 65.3577 194.039 64.3942 194.039 63.1095C194.039 61.8248 193.611 60.8613 192.701 60.219C191.791 59.5766 190.667 59.309 189.275 59.309C188.9 59.309 188.472 59.3625 188.097 59.4161V66.9635Z" fill="white"/>
<path d="M211.382 53.4209C211.382 52.3504 211.221 51.708 210.847 51.4404C210.526 51.1727 209.83 51.0122 208.813 51.0122V50.5304H216.36V51.0122C215.29 51.0657 214.594 51.2263 214.273 51.5474C213.951 51.8686 213.844 52.5645 213.844 53.7421V64.8759C213.844 66.0535 214.005 66.7494 214.273 67.0706C214.594 67.3917 215.29 67.5523 216.36 67.6058V68.0876H208.813V67.6058C209.937 67.5523 210.633 67.3917 210.9 67.0706C211.221 66.7494 211.328 66.0535 211.328 64.8759V54.8662L203.246 65.2506C203.246 66 203.299 66.4817 203.406 66.7494C203.513 67.017 203.728 67.1776 204.049 67.3382C204.37 67.4988 204.959 67.5523 205.815 67.6058V68.0876H198.268V67.6058C199.338 67.5523 200.034 67.3917 200.355 67.0706C200.676 66.7494 200.783 66.0535 200.783 64.8759V53.7421C200.783 52.5645 200.623 51.8686 200.355 51.5474C200.034 51.2263 199.338 51.0657 198.268 51.0122V50.5304H205.815V51.0122C204.745 51.0657 204.049 51.2263 203.727 51.5474C203.406 51.8686 203.299 52.5645 203.299 53.7421V63.8053L211.382 53.4209Z" fill="white"/>
<path d="M218.18 55.2409V50.1557H218.608C218.769 50.7445 219.09 51.0122 219.572 51.0122C219.786 51.0122 220.161 50.9051 220.803 50.6375C221.766 50.2628 222.783 50.1022 223.854 50.1022C225.299 50.1022 226.477 50.5304 227.333 51.3869C228.19 52.2433 228.672 53.2603 228.672 54.438C228.672 55.5085 228.35 56.4185 227.655 57.1679C227.012 57.9173 226.102 58.4526 225.032 58.8273C226.209 59.0414 227.173 59.5766 227.922 60.4331C228.672 61.2895 228.993 62.3066 228.993 63.4842C228.993 64.9294 228.457 66.1071 227.333 67.017C226.209 67.927 224.818 68.4088 223.158 68.4088C220.696 68.4088 218.769 67.2311 217.431 64.9294L217.859 64.6618C218.287 65.3577 218.929 66 219.786 66.4817C220.642 67.017 221.499 67.2311 222.462 67.2311C223.586 67.2311 224.496 66.8564 225.139 66.1071C225.781 65.3577 226.102 64.3942 226.102 63.3236C226.102 62.1995 225.728 61.236 224.925 60.4331C224.122 59.6302 222.783 59.2555 220.964 59.2555V58.399C222.248 58.399 223.265 58.2384 223.908 57.9708C224.55 57.7032 225.085 57.2749 225.513 56.6326C225.942 55.9903 226.156 55.2944 226.156 54.4915C226.156 53.528 225.888 52.7786 225.299 52.1898C224.71 51.601 223.961 51.2798 222.944 51.2798C221.713 51.2798 220.749 51.6545 220.054 52.3504C219.358 53.0998 218.929 54.0097 218.715 55.2409H218.18Z" fill="white"/>
<path d="M235.523 58.6131H243.659V53.635C243.659 52.7251 243.606 52.1363 243.499 51.8686C243.392 51.6545 243.231 51.4939 242.964 51.3333C242.589 51.1192 242.214 51.0122 241.786 51.0122H241.144V50.5304H248.637V51.0122H247.995C247.567 51.0122 247.192 51.1192 246.818 51.3333C246.55 51.4939 246.336 51.6545 246.282 51.9757C246.229 52.2968 246.122 52.8321 246.122 53.6886V64.983C246.122 65.8929 246.175 66.4282 246.282 66.7494C246.389 66.9635 246.55 67.1241 246.818 67.2847C247.192 67.4988 247.567 67.6058 247.995 67.6058H248.637V68.0876H241.144V67.6058H241.786C242.482 67.6058 243.017 67.3917 243.338 66.9635C243.552 66.6959 243.659 66.0535 243.659 64.983V59.6837H235.523V64.983C235.523 65.8929 235.577 66.4282 235.684 66.7494C235.791 66.9635 235.951 67.1241 236.219 67.2847C236.594 67.4988 236.968 67.6058 237.397 67.6058H238.039V68.0876H230.545V67.6058H231.187C231.883 67.6058 232.419 67.3917 232.74 66.9635C232.954 66.6959 233.061 66.0535 233.061 64.983V53.6886C233.061 52.7786 233.007 52.1898 232.9 51.9221C232.793 51.708 232.633 51.5474 232.365 51.3869C231.99 51.1727 231.616 51.0657 231.187 51.0657H230.545V50.5839H238.039V51.0657H237.397C236.968 51.0657 236.594 51.1727 236.219 51.3869C235.951 51.5474 235.791 51.708 235.684 52.0292C235.577 52.2968 235.523 52.8856 235.523 53.7421V58.6131Z" fill="white"/>
<path d="M254.686 51.4404V58.3455H258.54C259.557 58.3455 260.2 58.1849 260.521 57.9173C260.949 57.5426 261.217 56.8467 261.27 55.8297H261.752V61.9319H261.27C261.163 61.0754 261.002 60.5401 260.895 60.2725C260.735 59.9513 260.467 59.7372 260.146 59.5766C259.825 59.4161 259.236 59.309 258.54 59.309H254.686V65.09C254.686 65.8394 254.74 66.3212 254.793 66.4818C254.847 66.6423 255.007 66.8029 255.168 66.8564C255.328 66.91 255.65 67.017 256.131 67.017H259.075C260.039 67.017 260.788 66.9635 261.217 66.8029C261.645 66.6423 262.073 66.3747 262.501 66C263.037 65.4647 263.572 64.6618 264.161 63.5912H264.696L263.197 67.9805H249.708V67.4988H250.35C250.779 67.4988 251.153 67.3917 251.528 67.1776C251.796 67.017 252.01 66.8565 252.063 66.5353C252.117 66.2141 252.224 65.6788 252.224 64.8224V53.528C252.224 52.4039 252.117 51.7616 251.903 51.4939C251.582 51.1727 251.1 50.9586 250.35 50.9586H249.708V50.4769H263.197L263.411 54.3309H262.929C262.769 53.4209 262.555 52.7786 262.341 52.4574C262.127 52.1363 261.805 51.8686 261.377 51.6545C261.056 51.5474 260.414 51.4404 259.557 51.4404H254.686Z" fill="white"/>
<path d="M281.182 50.1022L281.557 56.0438H281.182C280.647 54.2774 279.898 52.9927 278.881 52.1898C277.917 51.3869 276.686 51.0122 275.348 51.0122C274.17 51.0122 273.153 51.3333 272.19 51.8686C271.226 52.4574 270.53 53.4209 269.995 54.7056C269.46 55.9903 269.192 57.5961 269.192 59.5231C269.192 61.1289 269.46 62.4671 269.942 63.6448C270.423 64.8224 271.226 65.6788 272.243 66.3212C273.26 66.9635 274.438 67.2311 275.723 67.2311C276.847 67.2311 277.864 66.9635 278.72 66.4817C279.577 66 280.54 65.0365 281.557 63.5912L281.932 63.8589C281.075 65.4112 280.058 66.5353 278.881 67.2847C277.703 67.9805 276.311 68.3552 274.706 68.3552C271.815 68.3552 269.567 67.2847 267.961 65.1435C266.783 63.5377 266.195 61.6642 266.195 59.5231C266.195 57.7567 266.569 56.1508 267.372 54.7056C268.175 53.2603 269.246 52.1363 270.584 51.3333C271.976 50.5304 273.474 50.1022 275.08 50.1022C276.365 50.1022 277.596 50.4234 278.827 51.0122C279.202 51.2263 279.47 51.2798 279.577 51.2798C279.791 51.2798 280.005 51.1727 280.165 51.0122C280.38 50.7981 280.54 50.4769 280.647 50.0487H281.182V50.1022Z" fill="white"/>
<path d="M173.859 78.9538L132.803 77.8832L64.6618 76.1168H283.056L220.642 77.7762L173.859 78.9538Z" fill="white"/>
</svg>
